JapaSansOriya-Black.ufo
<glyph name="L" format="2">
  <advance width="582"/>
  <unicode hex="004C"/>
  <anchor x="309" y="0" name="bottom"/>
  <anchor x="291" y="357" name="center"/>
  <anchor x="170" y="714" name="top"/>
  <anchor x="364" y="714" name="topright"/>
  <outline>
    <contour>
      <point x="77" y="0" type="line"/>
      <point x="545" y="0" type="line"/>
      <point x="545" y="156" type="line"/>
      <point x="270" y="156" type="line"/>
      <point x="270" y="714" type="line"/>
      <point x="77" y="714" type="line"/>
    </contour>
  </outline>
</glyph>
<glyph name="yen" format="2">
  <advance width="586"/>
  <unicode hex="00A5"/>
  <outline>
    <contour>
      <point x="293" y="468" type="line"/>
      <point x="199" y="714" type="line"/>
      <point x="4" y="714" type="line"/>
      <point x="177" y="366" type="line"/>
      <point x="84" y="366" type="line"/>
      <point x="84" y="263" type="line"/>
      <point x="204" y="263" type="line"/>
      <point x="204" y="206" type="line"/>
      <point x="84" y="206" type="line"/>
      <point x="84" y="104" type="line"/>
      <point x="204" y="104" type="line"/>
      <point x="204" y="0" type="line"/>
      <point x="382" y="0" type="line"/>
      <point x="382" y="104" type="line"/>
      <point x="500" y="104" type="line"/>
      <point x="500" y="206" type="line"/>
      <point x="382" y="206" type="line"/>
      <point x="382" y="263" type="line"/>
      <point x="500" y="263" type="line"/>
      <point x="500" y="366" type="line"/>
      <point x="405" y="366" type="line"/>
      <point x="582" y="714" type="line"/>
      <point x="387" y="714" type="line"/>
    </contour>
  </outline>
</glyph>
<glyph name="brokenbar" format="2">
  <advance width="509"/>
  <unicode hex="00A6"/>
  <outline>
    <contour>
      <point x="189" y="760" type="line"/>
      <point x="189" y="350" type="line"/>
      <point x="320" y="350" type="line"/>
      <point x="320" y="760" type="line"/>
    </contour>
    <contour>
      <point x="189" y="192" type="line"/>
      <point x="189" y="-218" type="line"/>
      <point x="320" y="-218" type="line"/>
      <point x="320" y="192" type="line"/>
    </contour>
  </outline>
</glyph>
<glyph name="logicalnot" format="2">
  <advance width="586"/>
  <unicode hex="00AC"/>
  <outline>
    <contour>
      <point x="540" y="418" type="line"/>
      <point x="45" y="418" type="line"/>
      <point x="45" y="287" type="line"/>
      <point x="408" y="287" type="line"/>
      <point x="408" y="116" type="line"/>
      <point x="540" y="116" type="line"/>
    </contour>
  </outline>
</glyph>
<glyph name="macron" format="2">
  <advance width="500"/>
  <unicode hex="00AF"/>
  <outline>
    <contour>
      <point x="503" y="760" type="line"/>
      <point x="503" y="880" type="line"/>
      <point x="-3" y="880" type="line"/>
      <point x="-3" y="760" type="line"/>
    </contour>
  </outline>
</glyph>
<glyph name="plusminus" format="2">
  <advance width="586"/>
  <unicode hex="00B1"/>
  <outline>
    <component base="plus.latn" yOffset="43"/>
    <contour>
      <point x="45" y="0" type="line"/>
      <point x="540" y="0" type="line"/>
      <point x="540" y="131" type="line"/>
      <point x="45" y="131" type="line"/>
    </contour>
  </outline>
</glyph>
<glyph name="acute" format="2">
  <advance width="418"/>
  <unicode hex="00B4"/>
  <outline>
    <contour>
      <point x="378" y="756" type="curve"/>
      <point x="378" y="766" type="line"/>
      <point x="169" y="766" type="line"/>
      <point x="136" y="721"/>
      <point x="74" y="657"/>
      <point x="40" y="620" type="curve"/>
      <point x="40" y="606" type="line"/>
      <point x="167" y="606" type="line"/>
      <point x="221" y="640"/>
      <point x="331" y="718"/>
    </contour>
  </outline>
</glyph>
<glyph name="dotlessi" format="2">
  <advance width="325"/>
  <unicode hex="0131"/>
  <anchor x="162" y="0" name="bottom"/>
  <anchor x="163" y="553" name="top"/>
  <outline>
    <contour>
      <point x="258" y="0" type="line"/>
      <point x="258" y="553" type="line"/>
      <point x="67" y="553" type="line"/>
      <point x="67" y="0" type="line"/>
    </contour>
  </outline>
</glyph>
<glyph name="macronmod" format="2">
  <advance width="435"/>
  <unicode hex="02C9"/>
  <outline>
    <contour>
      <point x="395" y="721" type="line"/>
      <point x="40" y="721" type="line"/>
      <point x="40" y="606" type="line"/>
      <point x="395" y="606" type="line"/>
    </contour>
  </outline>
</glyph>
<glyph name="hungarumlaut" format="2">
  <advance width="589"/>
  <unicode hex="02DD"/>
  <outline>
    <contour>
      <point x="549" y="756" type="curve"/>
      <point x="549" y="766" type="line"/>
      <point x="367" y="766" type="line"/>
      <point x="343" y="721"/>
      <point x="294" y="658"/>
      <point x="266" y="620" type="curve"/>
      <point x="266" y="606" type="line"/>
      <point x="365" y="606" type="line"/>
      <point x="417" y="641"/>
      <point x="528" y="721"/>
    </contour>
    <contour>
      <point x="322" y="756" type="curve"/>
      <point x="322" y="766" type="line"/>
      <point x="141" y="766" type="line"/>
      <point x="115" y="721"/>
      <point x="68" y="658"/>
      <point x="40" y="620" type="curve"/>
      <point x="40" y="606" type="line"/>
      <point x="139" y="606" type="line"/>
      <point x="190" y="641"/>
      <point x="301" y="721"/>
    </contour>
  </outline>
</glyph>
<glyph name="dotabovecomb" format="2">
  <unicode hex="0307"/>
  <anchor x="0" y="658" name="_top"/>
  <outline>
    <contour>
      <point x="0" y="726" type="curve"/>
      <point x="0" y="726" type="line"/>
      <point x="38" y="726"/>
      <point x="62" y="748"/>
      <point x="62" y="791" type="curve"/>
      <point x="62" y="831"/>
      <point x="38" y="852"/>
      <point x="0" y="852" type="curve"/>
      <point x="-37" y="852"/>
      <point x="-62" y="831"/>
      <point x="-62" y="791" type="curve"/>
      <point x="-62" y="750"/>
      <point x="-37" y="726"/>
    </contour>
  </outline>
</glyph>
<glyph name="dieresiscomb" format="2">
  <unicode hex="0308"/>
  <anchor x="0" y="658" name="_top"/>
  <outline>
    <contour>
      <point x="-124" y="726" type="curve"/>
      <point x="-124" y="726" type="line"/>
      <point x="-86" y="726"/>
      <point x="-62" y="748"/>
      <point x="-62" y="791" type="curve"/>
      <point x="-62" y="831"/>
      <point x="-86" y="852"/>
      <point x="-124" y="852" type="curve"/>
      <point x="-161" y="852"/>
      <point x="-186" y="831"/>
      <point x="-186" y="791" type="curve"/>
      <point x="-186" y="750"/>
      <point x="-161" y="726"/>
    </contour>
    <contour>
      <point x="124" y="726" type="curve"/>
      <point x="124" y="726" type="line"/>
      <point x="162" y="726"/>
      <point x="186" y="748"/>
      <point x="186" y="791" type="curve"/>
      <point x="186" y="831"/>
      <point x="162" y="852"/>
      <point x="124" y="852" type="curve"/>
      <point x="87" y="852"/>
      <point x="62" y="831"/>
      <point x="62" y="791" type="curve"/>
      <point x="62" y="750"/>
      <point x="87" y="726"/>
    </contour>
  </outline>
</glyph>
<glyph name="ai-oriya" format="2">
  <advance width="1010"/>
  <unicode hex="0B10"/>
  <note>
aiorya
</note>
  <guideline x="348" y="805" angle="32.7352"/>
  <guideline x="358" y="655" angle="32.7352"/>
  <anchor x="614" y="-150" name="nukta"/>
  <outline>
    <contour>
      <point x="750" y="270" type="curve"/>
      <point x="750" y="270" type="line"/>
      <point x="778" y="270"/>
      <point x="795" y="274"/>
      <point x="812" y="282" type="curve"/>
      <point x="812" y="433" type="line"/>
      <point x="795" y="425"/>
      <point x="778" y="420"/>
      <point x="751" y="420" type="curve"/>
      <point x="724" y="420"/>
      <point x="706" y="425"/>
      <point x="685" y="433" type="curve"/>
      <point x="685" y="282" type="line"/>
      <point x="704" y="274"/>
      <point x="722" y="270"/>
    </contour>
    <contour>
      <point x="329" y="490" type="curve"/>
      <point x="329" y="490" type="line"/>
      <point x="414" y="424" type="line"/>
      <point x="414" y="490"/>
      <point x="465" y="518"/>
      <point x="550" y="518" type="curve"/>
      <point x="532" y="571" type="line"/>
      <point x="532" y="115" type="line"/>
      <point x="586" y="134" type="line"/>
      <point x="425" y="226"/>
      <point x="261" y="356"/>
      <point x="106" y="510" type="curve"/>
      <point x="-16" y="380" type="line"/>
      <point x="141" y="237"/>
      <point x="314" y="106"/>
      <point x="502" y="0" type="curve"/>
      <point x="702" y="0" type="line"/>
      <point x="702" y="658" type="line"/>
      <point x="609" y="658" type="line" smooth="yes"/>
      <point x="394" y="658"/>
      <point x="289" y="534"/>
      <point x="289" y="437" type="curve"/>
      <point x="289" y="374"/>
      <point x="329" y="325"/>
      <point x="394" y="325" type="curve"/>
      <point x="452" y="325"/>
      <point x="496" y="365"/>
      <point x="496" y="417" type="curve"/>
      <point x="496" y="468"/>
      <point x="452" y="508"/>
      <point x="393" y="508" type="curve"/>
      <point x="368" y="508"/>
      <point x="346" y="501"/>
    </contour>
    <contour>
      <point x="964" y="755" type="line"/>
      <point x="908" y="646" type="line"/>
      <point x="987" y="680"/>
      <point x="1025" y="735"/>
      <point x="1025" y="792" type="curve"/>
      <point x="1025" y="874"/>
      <point x="967" y="941"/>
      <point x="857" y="941" type="curve"/>
      <point x="758" y="941"/>
      <point x="633" y="884"/>
      <point x="572" y="884" type="curve"/>
      <point x="549" y="884"/>
      <point x="527" y="898"/>
      <point x="507" y="931" type="curve"/>
      <point x="366" y="844" type="line"/>
      <point x="404" y="745"/>
      <point x="481" y="724"/>
      <point x="542" y="724" type="curve"/>
      <point x="650" y="724"/>
      <point x="751" y="781"/>
      <point x="809" y="781" type="curve"/>
      <point x="835" y="781"/>
      <point x="851" y="769"/>
      <point x="851" y="753" type="curve"/>
      <point x="851" y="736"/>
      <point x="831" y="709"/>
      <point x="794" y="696" type="curve"/>
      <point x="794" y="0" type="line"/>
      <point x="964" y="0" type="line"/>
    </contour>
  </outline>
</glyph>
<glyph name="ma-oriya" format="2">
  <advance width="798"/>
  <unicode hex="0B2E"/>
  <note>
maorya
</note>
  <anchor x="582" y="0" name="bottom"/>
  <anchor x="752" y="0" name="bottom_ra"/>
  <anchor x="752" y="10" name="bottom_ta"/>
  <anchor x="341" y="658" name="top"/>
  <anchor x="667" y="658" name="topright"/>
  <outline>
    <contour>
      <point x="173" y="170" type="curve"/>
      <point x="173" y="170" type="line"/>
      <point x="239" y="288" type="line"/>
      <point x="209" y="320"/>
      <point x="196" y="349"/>
      <point x="196" y="382" type="curve"/>
      <point x="196" y="456"/>
      <point x="262" y="506"/>
      <point x="362" y="506" type="curve"/>
      <point x="518" y="506"/>
      <point x="607" y="412"/>
      <point x="606" y="285" type="curve"/>
      <point x="734" y="293" type="line"/>
      <point x="734" y="546"/>
      <point x="538" y="666"/>
      <point x="341" y="666" type="curve"/>
      <point x="176" y="666"/>
      <point x="22" y="569"/>
      <point x="22" y="402" type="curve"/>
      <point x="22" y="296"/>
      <point x="73" y="225"/>
    </contour>
    <contour>
      <point x="582" y="465" type="line"/>
      <point x="582" y="0" type="line"/>
      <point x="752" y="0" type="line"/>
      <point x="752" y="658" type="line"/>
      <point x="582" y="658" type="line"/>
      <point x="592" y="547" type="line"/>
    </contour>
    <contour>
      <point x="214" y="-8" type="curve"/>
      <point x="214" y="-8" type="line"/>
      <point x="267" y="-8"/>
      <point x="319" y="26"/>
      <point x="319" y="93" type="curve"/>
      <point x="319" y="145"/>
      <point x="274" y="196"/>
      <point x="211" y="196" type="curve"/>
      <point x="154" y="196"/>
      <point x="115" y="162"/>
      <point x="115" y="102" type="curve"/>
      <point x="252" y="55" type="line"/>
      <point x="252" y="75"/>
      <point x="252" y="94"/>
      <point x="252" y="104" type="curve"/>
      <point x="252" y="172"/>
      <point x="287" y="227"/>
      <point x="465" y="236" type="curve"/>
      <point x="445" y="377" type="line"/>
      <point x="245" y="369"/>
      <point x="98" y="253"/>
      <point x="98" y="113" type="curve"/>
      <point x="98" y="31"/>
      <point x="157" y="-8"/>
    </contour>
  </outline>
</glyph>
<glyph name="overline-oriya" format="2">
  <unicode hex="0B55"/>
  <anchor x="0" y="658" name="_top"/>
  <anchor x="148" y="658" name="_topAA"/>
  <outline>
    <contour>
      <point x="148" y="841" type="line"/>
      <point x="-149" y="841" type="line"/>
      <point x="-149" y="726" type="line"/>
      <point x="148" y="726" type="line"/>
    </contour>
  </outline>
</glyph>
<glyph name="aiLength-oriya" format="2">
  <unicode hex="0B56"/>
  <note>
ailengthmarkorya
</note>
  <guideline x="1461" y="527" angle="90"/>
  <guideline x="298" y="941" angle="0"/>
  <anchor x="543" y="658" name="_topright"/>
  <outline>
    <contour>
      <point x="494" y="718" type="curve"/>
      <point x="494" y="718" type="line"/>
      <point x="647" y="686" type="line"/>
      <point x="665" y="718"/>
      <point x="673" y="751"/>
      <point x="673" y="783" type="curve"/>
      <point x="673" y="867"/>
      <point x="615" y="941"/>
      <point x="504" y="941" type="curve"/>
      <point x="407" y="941"/>
      <point x="278" y="884"/>
      <point x="224" y="884" type="curve"/>
      <point x="197" y="884"/>
      <point x="174" y="898"/>
      <point x="155" y="931" type="curve"/>
      <point x="14" y="844" type="line"/>
      <point x="52" y="745"/>
      <point x="130" y="724"/>
      <point x="193" y="724" type="curve"/>
      <point x="296" y="724"/>
      <point x="401" y="781"/>
      <point x="455" y="781" type="curve"/>
      <point x="486" y="781"/>
      <point x="499" y="763"/>
      <point x="499" y="742" type="curve"/>
      <point x="499" y="734"/>
      <point x="497" y="726"/>
    </contour>
  </outline>
</glyph>
<glyph name="auLength-oriya" format="2">
  <advance width="262"/>
  <unicode hex="0B57"/>
  <note>
aulengthmarkorya
</note>
  <outline>
    <contour>
      <point x="216" y="696" type="line"/>
      <point x="46" y="696" type="line"/>
      <point x="46" y="0" type="line"/>
      <point x="216" y="0" type="line"/>
    </contour>
    <contour>
      <point x="46" y="696" type="curve"/>
      <point x="46" y="696" type="line"/>
      <point x="151" y="643" type="line"/>
      <point x="236" y="676"/>
      <point x="277" y="734"/>
      <point x="277" y="792" type="curve"/>
      <point x="277" y="874"/>
      <point x="219" y="941"/>
      <point x="109" y="941" type="curve"/>
      <point x="10" y="941"/>
      <point x="-115" y="884"/>
      <point x="-176" y="884" type="curve"/>
      <point x="-199" y="884"/>
      <point x="-221" y="898"/>
      <point x="-241" y="931" type="curve"/>
      <point x="-382" y="844" type="line"/>
      <point x="-344" y="745"/>
      <point x="-267" y="724"/>
      <point x="-206" y="724" type="curve"/>
      <point x="-98" y="724"/>
      <point x="3" y="781"/>
      <point x="61" y="781" type="curve"/>
      <point x="87" y="781"/>
      <point x="103" y="769"/>
      <point x="103" y="753" type="curve"/>
      <point x="103" y="736"/>
      <point x="83" y="709"/>
    </contour>
  </outline>
</glyph>
<glyph name="isshar-oriya" format="2">
  <advance width="819"/>
  <unicode hex="0B70"/>
  <note>
issharorya
</note>
  <outline>
    <contour>
      <point x="765" y="665" type="curve"/>
      <point x="605" y="696" type="line"/>
      <point x="551" y="352"/>
      <point x="474" y="263"/>
      <point x="375" y="263" type="curve"/>
      <point x="287" y="263"/>
      <point x="244" y="316"/>
      <point x="225" y="477" type="curve"/>
      <point x="65" y="455" type="line"/>
      <point x="82" y="291"/>
      <point x="163" y="103"/>
      <point x="373" y="103" type="curve"/>
      <point x="559" y="103"/>
      <point x="702" y="247"/>
    </contour>
    <contour>
      <point x="386" y="460" type="curve"/>
      <point x="386" y="460" type="line"/>
      <point x="436" y="460"/>
      <point x="474" y="495"/>
      <point x="474" y="547" type="curve"/>
      <point x="474" y="597"/>
      <point x="434" y="636"/>
      <point x="386" y="636" type="curve"/>
      <point x="338" y="636"/>
      <point x="299" y="597"/>
      <point x="299" y="547" type="curve"/>
      <point x="299" y="497"/>
      <point x="339" y="460"/>
    </contour>
  </outline>
</glyph>
<glyph name="fraction" format="2">
  <advance width="92"/>
  <unicode hex="2044"/>
  <outline>
    <contour>
      <point x="303" y="714" type="line"/>
      <point x="156" y="714" type="line"/>
      <point x="-212" y="0" type="line"/>
      <point x="-65" y="0" type="line"/>
    </contour>
  </outline>
</glyph>
<glyph name="sevensuperior" format="2">
  <advance width="399"/>
  <unicode hex="2077"/>
  <outline>
    <contour>
      <point x="73" y="416" type="line"/>
      <point x="229" y="416" type="line"/>
      <point x="377" y="754" type="line"/>
      <point x="377" y="844" type="line"/>
      <point x="30" y="844" type="line"/>
      <point x="30" y="739" type="line"/>
      <point x="240" y="739" type="line"/>
    </contour>
  </outline>
</glyph>
<glyph name="hyphensuperior" format="2">
  <advance width="388"/>
  <unicode hex="207B"/>
  <outline>
    <contour>
      <point x="35" y="556" type="line"/>
      <point x="352" y="556" type="line"/>
      <point x="352" y="640" type="line"/>
      <point x="35" y="640" type="line"/>
    </contour>
  </outline>
</glyph>
<glyph name="parenleftsuperior" format="2">
  <advance width="253"/>
  <unicode hex="207D"/>
  <outline>
    <contour>
      <point x="63" y="617" type="curve" smooth="yes"/>
      <point x="63" y="514"/>
      <point x="86" y="409"/>
      <point x="151" y="334" type="curve"/>
      <point x="252" y="334" type="line"/>
      <point x="195" y="412"/>
      <point x="171" y="518"/>
      <point x="171" y="618" type="curve" smooth="yes"/>
      <point x="171" y="719"/>
      <point x="195" y="825"/>
      <point x="253" y="905" type="curve"/>
      <point x="151" y="905" type="line"/>
      <point x="86" y="828"/>
      <point x="63" y="721"/>
    </contour>
  </outline>
</glyph>
<glyph name="halfbracketleftbottom" format="2">
  <advance width="345"/>
  <unicode hex="2E24"/>
  <outline>
    <contour>
      <point x="80" y="-158" type="line"/>
      <point x="320" y="-158" type="line"/>
      <point x="320" y="-56" type="line"/>
      <point x="196" y="-56" type="line"/>
      <point x="196" y="293" type="line"/>
      <point x="80" y="293" type="line"/>
    </contour>
  </outline>
</glyph>
<glyph name="halfbracketrightbottom" format="2">
  <advance width="345"/>
  <unicode hex="2E25"/>
  <outline>
    <contour>
      <point x="149" y="293" type="line"/>
      <point x="149" y="-56" type="line"/>
      <point x="25" y="-56" type="line"/>
      <point x="25" y="-158" type="line"/>
      <point x="265" y="-158" type="line"/>
      <point x="265" y="293" type="line"/>
    </contour>
  </outline>
</glyph>
<glyph name="saltillo" format="2">
  <advance width="290"/>
  <unicode hex="A78C"/>
  <outline>
    <contour>
      <point x="78" y="356" type="line"/>
      <point x="212" y="356" type="line"/>
      <point x="236" y="714" type="line"/>
      <point x="54" y="714" type="line"/>
    </contour>
  </outline>
</glyph>
<glyph name="_part.da.below" format="2">
  <advance width="529"/>
  <anchor x="147" y="56" name="curve"/>
  <anchor x="327" y="50" name="vertical"/>
  <outline>
    <contour>
      <point x="257" y="-207" type="curve"/>
      <point x="257" y="-207" type="line"/>
      <point x="342" y="-207"/>
      <point x="427" y="-156"/>
      <point x="427" y="-50" type="curve"/>
      <point x="344" y="-36" type="line"/>
      <point x="344" y="-74"/>
      <point x="318" y="-100"/>
      <point x="285" y="-100" type="curve"/>
      <point x="255" y="-100"/>
      <point x="244" y="-80"/>
      <point x="244" y="-53" type="curve"/>
      <point x="244" y="-27"/>
      <point x="253" y="5"/>
      <point x="265" y="32" type="curve"/>
      <point x="148" y="56" type="line"/>
      <point x="126" y="18"/>
      <point x="114" y="-24"/>
      <point x="114" y="-63" type="curve"/>
      <point x="114" y="-141"/>
      <point x="161" y="-207"/>
    </contour>
    <contour>
      <point x="337" y="-150" type="line"/>
      <point x="327" y="-244" type="line"/>
      <point x="497" y="-244" type="line"/>
      <point x="497" y="50" type="line"/>
      <point x="327" y="50" type="line"/>
      <point x="327" y="-141" type="line"/>
    </contour>
  </outline>
</glyph>
<glyph name="_part.ra.below" format="2">
  <advance width="530"/>
  <anchor x="510" y="0" name="_bottom_ra"/>
  <anchor x="30" y="-60" name="horizontal"/>
  <anchor x="340" y="-60" name="stem"/>
  <anchor x="340" y="20" name="vertical"/>
  <outline>
    <contour>
      <point x="30" y="-200" type="line"/>
      <point x="510" y="-200" type="line"/>
      <point x="510" y="20" type="line"/>
      <point x="340" y="20" type="line"/>
      <point x="340" y="-60" type="line"/>
      <point x="30" y="-60" type="line"/>
    </contour>
  </outline>
</glyph>
<glyph name="aiLength-oriya.stem" format="2">
  <note>
ailengthmarkorya
</note>
  <guideline x="298" y="941" angle="0"/>
  <anchor x="512" y="658" name="_topright"/>
  <outline>
    <contour>
      <point x="427" y="658" type="curve"/>
      <point x="427" y="658" type="line"/>
      <point x="563" y="622" type="line"/>
      <point x="639" y="670"/>
      <point x="674" y="737"/>
      <point x="674" y="798" type="curve"/>
      <point x="674" y="875"/>
      <point x="615" y="941"/>
      <point x="507" y="941" type="curve"/>
      <point x="407" y="941"/>
      <point x="279" y="884"/>
      <point x="225" y="884" type="curve"/>
      <point x="198" y="884"/>
      <point x="175" y="898"/>
      <point x="156" y="931" type="curve"/>
      <point x="15" y="844" type="line"/>
      <point x="53" y="745"/>
      <point x="131" y="724"/>
      <point x="194" y="724" type="curve"/>
      <point x="297" y="724"/>
      <point x="400" y="781"/>
      <point x="458" y="781" type="curve"/>
      <point x="486" y="781"/>
      <point x="500" y="768"/>
      <point x="500" y="749" type="curve"/>
      <point x="500" y="723"/>
      <point x="476" y="687"/>
    </contour>
  </outline>
</glyph>
<glyph name="aiLength-oriya.umbrella" format="2">
  <note>
ailengthmarkorya
</note>
  <guideline x="1461" y="527" angle="90"/>
  <guideline x="298" y="941" angle="0"/>
  <anchor x="543" y="658" name="_topright"/>
  <outline>
    <contour>
      <point x="396" y="627" type="curve"/>
      <point x="396" y="627" type="line"/>
      <point x="521" y="568" type="line"/>
      <point x="627" y="627"/>
      <point x="673" y="708"/>
      <point x="673" y="783" type="curve"/>
      <point x="673" y="867"/>
      <point x="615" y="941"/>
      <point x="504" y="941" type="curve"/>
      <point x="407" y="941"/>
      <point x="278" y="884"/>
      <point x="224" y="884" type="curve"/>
      <point x="197" y="884"/>
      <point x="174" y="898"/>
      <point x="155" y="931" type="curve"/>
      <point x="14" y="844" type="line"/>
      <point x="52" y="745"/>
      <point x="130" y="724"/>
      <point x="193" y="724" type="curve"/>
      <point x="296" y="724"/>
      <point x="401" y="781"/>
      <point x="455" y="781" type="curve"/>
      <point x="486" y="781"/>
      <point x="499" y="763"/>
      <point x="499" y="742" type="curve"/>
      <point x="499" y="704"/>
      <point x="458" y="667"/>
    </contour>
  </outline>
</glyph>
<glyph name="aireph-oriya" format="2">
  <advance width="1010"/>
  <anchor x="605" y="-150" name="nukta"/>
  <outline>
    <contour>
      <point x="748" y="270" type="curve"/>
      <point x="748" y="270" type="line"/>
      <point x="776" y="270"/>
      <point x="793" y="274"/>
      <point x="810" y="282" type="curve"/>
      <point x="810" y="433" type="line"/>
      <point x="793" y="425"/>
      <point x="776" y="420"/>
      <point x="749" y="420" type="curve"/>
      <point x="722" y="420"/>
      <point x="704" y="425"/>
      <point x="683" y="433" type="curve"/>
      <point x="683" y="282" type="line"/>
      <point x="702" y="274"/>
      <point x="720" y="270"/>
    </contour>
    <contour>
      <point x="870" y="807" type="line"/>
      <point x="944" y="719" type="line"/>
      <point x="1147" y="889" type="line"/>
      <point x="1073" y="977" type="line"/>
    </contour>
    <contour>
      <point x="964" y="696" type="line"/>
      <point x="794" y="696" type="line"/>
      <point x="794" y="0" type="line"/>
      <point x="964" y="0" type="line"/>
    </contour>
    <contour>
      <point x="794" y="696" type="curve"/>
      <point x="794" y="696" type="line"/>
      <point x="899" y="643" type="line"/>
      <point x="984" y="676"/>
      <point x="1025" y="734"/>
      <point x="1025" y="792" type="curve"/>
      <point x="1025" y="874"/>
      <point x="967" y="941"/>
      <point x="857" y="941" type="curve"/>
      <point x="758" y="941"/>
      <point x="633" y="884"/>
      <point x="572" y="884" type="curve"/>
      <point x="549" y="884"/>
      <point x="527" y="898"/>
      <point x="507" y="931" type="curve"/>
      <point x="366" y="844" type="line"/>
      <point x="404" y="745"/>
      <point x="481" y="724"/>
      <point x="542" y="724" type="curve"/>
      <point x="650" y="724"/>
      <point x="751" y="781"/>
      <point x="809" y="781" type="curve"/>
      <point x="835" y="781"/>
      <point x="851" y="769"/>
      <point x="851" y="753" type="curve"/>
      <point x="851" y="736"/>
      <point x="831" y="709"/>
    </contour>
    <contour>
      <point x="329" y="490" type="curve"/>
      <point x="329" y="490" type="line"/>
      <point x="414" y="424" type="line"/>
      <point x="414" y="490"/>
      <point x="465" y="518"/>
      <point x="550" y="518" type="curve"/>
      <point x="532" y="571" type="line"/>
      <point x="532" y="115" type="line"/>
      <point x="586" y="134" type="line"/>
      <point x="425" y="226"/>
      <point x="261" y="356"/>
      <point x="106" y="510" type="curve"/>
      <point x="-16" y="380" type="line"/>
      <point x="141" y="237"/>
      <point x="314" y="106"/>
      <point x="502" y="0" type="curve"/>
      <point x="702" y="0" type="line"/>
      <point x="702" y="658" type="line"/>
      <point x="609" y="658" type="line" smooth="yes"/>
      <point x="394" y="658"/>
      <point x="289" y="534"/>
      <point x="289" y="437" type="curve"/>
      <point x="289" y="374"/>
      <point x="329" y="325"/>
      <point x="394" y="325" type="curve"/>
      <point x="452" y="325"/>
      <point x="496" y="365"/>
      <point x="496" y="417" type="curve"/>
      <point x="496" y="468"/>
      <point x="452" y="508"/>
      <point x="393" y="508" type="curve"/>
      <point x="368" y="508"/>
      <point x="346" y="501"/>
    </contour>
  </outline>
</glyph>
<glyph name="ba-oriya.below" format="2">
  <note>
basubscriptorya
</note>
  <guideline x="218" y="155" angle="90"/>
  <anchor x="238" y="110" name="_bottom"/>
  <anchor x="217" y="-364" name="nukta"/>
  <outline>
    <contour>
      <point x="99" y="-152" type="curve"/>
      <point x="99" y="-152" type="line"/>
      <point x="151" y="-92" type="line"/>
      <point x="133" y="-77"/>
      <point x="124" y="-59"/>
      <point x="124" y="-37" type="curve"/>
      <point x="124" y="-5"/>
      <point x="160" y="16"/>
      <point x="215" y="16" type="curve"/>
      <point x="273" y="16"/>
      <point x="313" y="-5"/>
      <point x="313" y="-37" type="curve"/>
      <point x="313" y="-45"/>
      <point x="311" y="-53"/>
      <point x="308" y="-61" type="curve"/>
      <point x="409" y="-96" type="line"/>
      <point x="418" y="-80"/>
      <point x="423" y="-62"/>
      <point x="423" y="-39" type="curve"/>
      <point x="423" y="65"/>
      <point x="315" y="116"/>
      <point x="209" y="116" type="curve"/>
      <point x="110" y="116"/>
      <point x="12" y="68"/>
      <point x="12" y="-27" type="curve"/>
      <point x="12" y="-73"/>
      <point x="35" y="-117"/>
    </contour>
    <contour>
      <point x="190" y="-228" type="curve"/>
      <point x="190" y="-228" type="line"/>
      <point x="262" y="-228"/>
      <point x="311" y="-187"/>
      <point x="311" y="-125" type="curve"/>
      <point x="311" y="-63"/>
      <point x="262" y="-22"/>
      <point x="190" y="-22" type="curve"/>
      <point x="117" y="-22"/>
      <point x="68" y="-63"/>
      <point x="68" y="-125" type="curve"/>
      <point x="68" y="-187"/>
      <point x="117" y="-228"/>
    </contour>
    <contour>
      <point x="190" y="-152" type="curve"/>
      <point x="190" y="-152" type="line"/>
      <point x="168" y="-152"/>
      <point x="156" y="-141"/>
      <point x="156" y="-125" type="curve"/>
      <point x="156" y="-109"/>
      <point x="168" y="-98"/>
      <point x="190" y="-98" type="curve"/>
      <point x="212" y="-98"/>
      <point x="223" y="-109"/>
      <point x="223" y="-125" type="curve"/>
      <point x="223" y="-141"/>
      <point x="212" y="-152"/>
    </contour>
    <contour>
      <point x="215" y="-179" type="line"/>
      <point x="209" y="-244" type="line"/>
      <point x="311" y="-244" type="line"/>
      <point x="311" y="-125" type="line"/>
    </contour>
  </outline>
</glyph>
<glyph name="baja-oriya" format="2">
  <advance width="754"/>
  <guideline x="161" y="142" angle="90"/>
  <guideline x="556" y="177" angle="90"/>
  <guideline x="626" y="177" angle="90"/>
  <anchor x="502" y="-244" name="bottom"/>
  <anchor x="626" y="-244" name="bottom_ra"/>
  <anchor x="416" y="-388" name="nukta"/>
  <anchor x="370" y="658" name="top"/>
  <anchor x="582" y="658" name="topright"/>
  <outline>
    <contour>
      <point x="352" y="-248" type="curve"/>
      <point x="352" y="-248" type="line"/>
      <point x="395" y="-248"/>
      <point x="437" y="-245"/>
      <point x="485" y="-234" type="curve"/>
      <point x="477" y="-195"/>
      <point x="469" y="-148"/>
      <point x="469" y="-105" type="curve"/>
      <point x="469" y="-73"/>
      <point x="473" y="-58"/>
      <point x="488" y="-58" type="curve"/>
      <point x="500" y="-58"/>
      <point x="502" y="-71"/>
      <point x="502" y="-81" type="curve"/>
      <point x="502" y="-244" type="line"/>
      <point x="626" y="-244" type="line"/>
      <point x="626" y="-67" type="line" smooth="yes"/>
      <point x="626" y="-5"/>
      <point x="581" y="36"/>
      <point x="494" y="36" type="curve"/>
      <point x="390" y="36"/>
      <point x="345" y="-22"/>
      <point x="345" y="-101" type="curve"/>
      <point x="345" y="-132"/>
      <point x="353" y="-168"/>
      <point x="366" y="-201" type="curve"/>
      <point x="386" y="-148" type="line"/>
      <point x="374" y="-152"/>
      <point x="364" y="-154"/>
      <point x="354" y="-154" type="curve"/>
      <point x="325" y="-154"/>
      <point x="305" y="-133"/>
      <point x="305" y="-94" type="curve"/>
      <point x="305" y="-69"/>
      <point x="314" y="-45"/>
      <point x="343" y="-18" type="curve"/>
      <point x="266" y="41" type="line"/>
      <point x="208" y="0"/>
      <point x="181" y="-57"/>
      <point x="181" y="-107" type="curve"/>
      <point x="181" y="-182"/>
      <point x="241" y="-248"/>
    </contour>
    <contour>
      <point x="413" y="204" type="line"/>
      <point x="399" y="-1" type="line"/>
      <point x="556" y="-1" type="line"/>
      <point x="556" y="280" type="line"/>
    </contour>
    <contour>
      <point x="355" y="116" type="curve"/>
      <point x="355" y="116" type="line"/>
      <point x="476" y="116"/>
      <point x="556" y="182"/>
      <point x="556" y="280" type="curve"/>
      <point x="556" y="375"/>
      <point x="476" y="439"/>
      <point x="357" y="439" type="curve"/>
      <point x="236" y="439"/>
      <point x="156" y="375"/>
      <point x="156" y="278" type="curve"/>
      <point x="156" y="181"/>
      <point x="236" y="116"/>
    </contour>
    <contour>
      <point x="356" y="232" type="curve"/>
      <point x="356" y="232" type="line"/>
      <point x="322" y="232"/>
      <point x="300" y="251"/>
      <point x="300" y="279" type="curve"/>
      <point x="300" y="306"/>
      <point x="322" y="323"/>
      <point x="356" y="323" type="curve"/>
      <point x="390" y="323"/>
      <point x="412" y="306"/>
      <point x="412" y="279" type="curve"/>
      <point x="412" y="251"/>
      <point x="390" y="232"/>
    </contour>
    <contour>
      <point x="192" y="213" type="curve"/>
      <point x="192" y="213" type="line"/>
      <point x="229" y="328" type="line"/>
      <point x="204" y="351"/>
      <point x="187" y="382"/>
      <point x="187" y="412" type="curve"/>
      <point x="187" y="465"/>
      <point x="237" y="516"/>
      <point x="374" y="516" type="curve"/>
      <point x="468" y="516"/>
      <point x="562" y="482"/>
      <point x="562" y="414" type="curve"/>
      <point x="562" y="398"/>
      <point x="559" y="384"/>
      <point x="552" y="369" type="curve"/>
      <point x="707" y="316" type="line"/>
      <point x="723" y="343"/>
      <point x="732" y="374"/>
      <point x="732" y="410" type="curve"/>
      <point x="732" y="581"/>
      <point x="550" y="666"/>
      <point x="370" y="666" type="curve"/>
      <point x="127" y="666"/>
      <point x="22" y="548"/>
      <point x="22" y="431" type="curve"/>
      <point x="22" y="341"/>
      <point x="84" y="251"/>
    </contour>
  </outline>
</glyph>
<glyph name="ca-oriya.below" format="2">
  <note>
casubscriptorya
</note>
  <guideline x="206" y="155" angle="90"/>
  <anchor x="226" y="110" name="_bottom"/>
  <outline>
    <contour>
      <point x="101" y="-152" type="curve"/>
      <point x="101" y="-152" type="line"/>
      <point x="151" y="-90" type="line"/>
      <point x="131" y="-76"/>
      <point x="122" y="-58"/>
      <point x="122" y="-37" type="curve"/>
      <point x="122" y="-2"/>
      <point x="165" y="16"/>
      <point x="209" y="16" type="curve"/>
      <point x="252" y="16"/>
      <point x="295" y="-2"/>
      <point x="295" y="-37" type="curve"/>
      <point x="295" y="-45"/>
      <point x="293" y="-53"/>
      <point x="290" y="-61" type="curve"/>
      <point x="391" y="-96" type="line"/>
      <point x="400" y="-80"/>
      <point x="405" y="-62"/>
      <point x="405" y="-39" type="curve"/>
      <point x="405" y="65"/>
      <point x="304" y="116"/>
      <point x="204" y="116" type="curve"/>
      <point x="107" y="116"/>
      <point x="12" y="68"/>
      <point x="12" y="-27" type="curve"/>
      <point x="12" y="-70"/>
      <point x="37" y="-117"/>
    </contour>
    <contour>
      <point x="190" y="-248" type="curve"/>
      <point x="190" y="-248" type="line"/>
      <point x="262" y="-248"/>
      <point x="311" y="-207"/>
      <point x="311" y="-145" type="curve"/>
      <point x="311" y="-83"/>
      <point x="262" y="-42"/>
      <point x="190" y="-42" type="curve"/>
      <point x="117" y="-42"/>
      <point x="68" y="-83"/>
      <point x="68" y="-145" type="curve"/>
      <point x="68" y="-207"/>
      <point x="117" y="-248"/>
    </contour>
    <contour>
      <point x="190" y="-172" type="curve"/>
      <point x="190" y="-172" type="line"/>
      <point x="168" y="-172"/>
      <point x="156" y="-161"/>
      <point x="156" y="-145" type="curve"/>
      <point x="156" y="-129"/>
      <point x="168" y="-118"/>
      <point x="190" y="-118" type="curve"/>
      <point x="212" y="-118"/>
      <point x="223" y="-129"/>
      <point x="223" y="-145" type="curve"/>
      <point x="223" y="-161"/>
      <point x="212" y="-172"/>
    </contour>
  </outline>
</glyph>
<glyph name="darauMatra-oriya" format="2">
  <advance width="791"/>
  <anchor x="95" y="-322" name="nukta"/>
  <anchor x="389" y="658" name="top"/>
  <anchor x="619" y="658" name="topright"/>
  <outline>
    <contour>
      <point x="301" y="118" type="curve"/>
      <point x="301" y="118" type="line"/>
      <point x="407" y="118"/>
      <point x="521" y="179"/>
      <point x="521" y="300" type="curve"/>
      <point x="442" y="300" type="line"/>
      <point x="442" y="254"/>
      <point x="398" y="232"/>
      <point x="357" y="232" type="curve"/>
      <point x="310" y="232"/>
      <point x="288" y="253"/>
      <point x="288" y="279" type="curve"/>
      <point x="288" y="303"/>
      <point x="305" y="331"/>
      <point x="337" y="353" type="curve"/>
      <point x="264" y="441" type="line"/>
      <point x="166" y="403"/>
      <point x="120" y="332"/>
      <point x="120" y="259" type="curve"/>
      <point x="120" y="165"/>
      <point x="208" y="118"/>
    </contour>
    <contour>
      <point x="169" y="228" type="curve"/>
      <point x="169" y="228" type="line"/>
      <point x="227" y="326" type="line"/>
      <point x="199" y="344"/>
      <point x="182" y="382"/>
      <point x="182" y="413" type="curve"/>
      <point x="182" y="481"/>
      <point x="260" y="521"/>
      <point x="392" y="521" type="curve"/>
      <point x="522" y="521"/>
      <point x="599" y="482"/>
      <point x="599" y="415" type="curve"/>
      <point x="599" y="399"/>
      <point x="590" y="373"/>
      <point x="579" y="356" type="curve"/>
      <point x="729" y="292" type="line"/>
      <point x="753" y="325"/>
      <point x="769" y="363"/>
      <point x="769" y="416" type="curve"/>
      <point x="769" y="571"/>
      <point x="630" y="666"/>
      <point x="389" y="666" type="curve"/>
      <point x="158" y="666"/>
      <point x="22" y="578"/>
      <point x="22" y="435" type="curve"/>
      <point x="22" y="354"/>
      <point x="66" y="284"/>
    </contour>
    <contour>
      <point x="555" y="360" type="line"/>
      <point x="395" y="360" type="line"/>
      <point x="394" y="84" type="line"/>
      <point x="65" y="84" type="line"/>
      <point x="65" y="-30" type="line"/>
      <point x="555" y="-30" type="line"/>
    </contour>
    <contour>
      <point x="221" y="-232" type="curve"/>
      <point x="221" y="-232" type="line"/>
      <point x="338" y="-232"/>
      <point x="421" y="-147"/>
      <point x="421" y="-20" type="curve"/>
      <point x="421" y="-4" type="line"/>
      <point x="313" y="-4" type="line"/>
      <point x="313" y="-20" type="line" smooth="yes"/>
      <point x="313" y="-115"/>
      <point x="251" y="-144"/>
      <point x="213" y="-144" type="curve"/>
      <point x="197" y="-144"/>
      <point x="187" y="-139"/>
      <point x="187" y="-131" type="curve"/>
      <point x="187" y="-123"/>
      <point x="196" y="-118"/>
      <point x="216" y="-118" type="curve"/>
      <point x="312" y="-118"/>
      <point x="380" y="-232"/>
      <point x="502" y="-232" type="curve"/>
      <point x="524" y="-232"/>
      <point x="546" y="-228"/>
      <point x="567" y="-221" type="curve"/>
      <point x="542" y="-139" type="line"/>
      <point x="526" y="-142"/>
      <point x="511" y="-144"/>
      <point x="497" y="-144" type="curve"/>
      <point x="395" y="-144"/>
      <point x="332" y="-48"/>
      <point x="214" y="-48" type="curve"/>
      <point x="142" y="-48"/>
      <point x="97" y="-84"/>
      <point x="97" y="-139" type="curve"/>
      <point x="97" y="-195"/>
      <point x="144" y="-232"/>
    </contour>
  </outline>
</glyph>
<glyph name="ddha-oriya.below" format="2">
  <note>
ddhasubscriptorya
</note>
  <guideline x="159" y="158" angle="90"/>
  <anchor x="159" y="110" name="_bottom"/>
  <outline>
    <contour>
      <point x="282" y="-248" type="curve"/>
      <point x="282" y="-248" type="line"/>
      <point x="298" y="-153" type="line"/>
      <point x="187" y="-146"/>
      <point x="122" y="-108"/>
      <point x="122" y="-28" type="curve"/>
      <point x="122" y="11"/>
      <point x="137" y="25"/>
      <point x="153" y="25" type="curve"/>
      <point x="168" y="25"/>
      <point x="182" y="14"/>
      <point x="182" y="-7" type="curve"/>
      <point x="182" y="-30"/>
      <point x="165" y="-41"/>
      <point x="141" y="-41" type="curve"/>
      <point x="120" y="-41"/>
      <point x="95" y="-33"/>
      <point x="76" y="-16" type="curve"/>
      <point x="55" y="-83" type="line"/>
      <point x="91" y="-106"/>
      <point x="131" y="-117"/>
      <point x="166" y="-117" type="curve"/>
      <point x="250" y="-117"/>
      <point x="292" y="-60"/>
      <point x="292" y="-3" type="curve"/>
      <point x="292" y="56"/>
      <point x="248" y="115"/>
      <point x="159" y="115" type="curve"/>
      <point x="65" y="115"/>
      <point x="12" y="49"/>
      <point x="12" y="-33" type="curve"/>
      <point x="12" y="-127"/>
      <point x="83" y="-236"/>
    </contour>
  </outline>
</glyph>
<glyph name="dha-oriya.below" format="2">
  <note>
dhasubscriptorya
</note>
  <guideline x="215" y="144" angle="90"/>
  <anchor x="215" y="110" name="_bottom"/>
  <anchor x="227" y="-388" name="nukta"/>
  <outline>
    <contour>
      <point x="29" y="43" type="line"/>
      <point x="214" y="-117" type="line"/>
      <point x="280" y="-44" type="line"/>
      <point x="94" y="116" type="line"/>
    </contour>
    <contour>
      <point x="324" y="-193" type="line"/>
      <point x="314" y="-244" type="line"/>
      <point x="422" y="-244" type="line"/>
      <point x="422" y="112" type="line"/>
      <point x="314" y="112" type="line"/>
      <point x="314" y="-157" type="line"/>
    </contour>
    <contour>
      <point x="172" y="-248" type="curve"/>
      <point x="172" y="-248" type="line"/>
      <point x="269" y="-248"/>
      <point x="343" y="-204"/>
      <point x="392" y="-129" type="curve"/>
      <point x="340" y="-55" type="line"/>
      <point x="285" y="-125"/>
      <point x="221" y="-148"/>
      <point x="172" y="-148" type="curve"/>
      <point x="135" y="-148"/>
      <point x="122" y="-135"/>
      <point x="122" y="-118" type="curve"/>
      <point x="122" y="-101"/>
      <point x="137" y="-81"/>
      <point x="171" y="-66" type="curve"/>
      <point x="134" y="15" type="line"/>
      <point x="54" y="-10"/>
      <point x="12" y="-70"/>
      <point x="12" y="-127" type="curve"/>
      <point x="12" y="-190"/>
      <point x="63" y="-248"/>
    </contour>
  </outline>
</glyph>
<glyph name="emdash.latn" format="2">
  <advance width="1000"/>
  <outline>
    <contour>
      <point x="36" y="202" type="line"/>
      <point x="962" y="202" type="line"/>
      <point x="962" y="337" type="line"/>
      <point x="36" y="337" type="line"/>
    </contour>
  </outline>
</glyph>
<glyph name="haja-oriya" format="2">
  <advance width="734"/>
  <note>
hajaorya
</note>
  <guideline x="512" y="372" angle="90"/>
  <guideline x="588" y="372" angle="90"/>
  <anchor x="480" y="-164" name="bottom"/>
  <anchor x="588" y="-164" name="bottom_ra"/>
  <anchor x="417" y="-278" name="nukta"/>
  <anchor x="360" y="658" name="top"/>
  <anchor x="562" y="658" name="topright"/>
  <outline>
    <contour>
      <point x="106" y="115" type="line"/>
      <point x="404" y="24" type="line"/>
      <point x="522" y="109" type="line"/>
      <point x="259" y="192" type="line"/>
      <point x="169" y="110" type="line"/>
      <point x="355" y="235" type="line"/>
      <point x="264" y="295" type="line"/>
      <point x="92" y="186" type="line"/>
    </contour>
    <contour>
      <point x="302" y="211" type="curve"/>
      <point x="302" y="211" type="line"/>
      <point x="394" y="211"/>
      <point x="480" y="265"/>
      <point x="480" y="380" type="curve"/>
      <point x="378" y="382" type="line"/>
      <point x="378" y="344"/>
      <point x="360" y="317"/>
      <point x="327" y="317" type="curve"/>
      <point x="303" y="317"/>
      <point x="291" y="331"/>
      <point x="291" y="348" type="curve"/>
      <point x="291" y="368"/>
      <point x="303" y="384"/>
      <point x="333" y="400" type="curve"/>
      <point x="276" y="483" type="line"/>
      <point x="197" y="457"/>
      <point x="147" y="402"/>
      <point x="147" y="335" type="curve"/>
      <point x="147" y="256"/>
      <point x="221" y="211"/>
    </contour>
    <contour>
      <point x="374" y="257" type="line"/>
      <point x="361" y="182" type="line"/>
      <point x="512" y="182" type="line"/>
      <point x="512" y="436" type="line"/>
      <point x="362" y="436" type="line"/>
      <point x="362" y="273" type="line"/>
    </contour>
    <contour>
      <point x="532" y="347" type="curve"/>
      <point x="675" y="290" type="line"/>
      <point x="699" y="330"/>
      <point x="712" y="374"/>
      <point x="712" y="421" type="curve"/>
      <point x="712" y="588"/>
      <point x="547" y="666"/>
      <point x="360" y="666" type="curve"/>
      <point x="156" y="666"/>
      <point x="22" y="573"/>
      <point x="22" y="452" type="curve"/>
      <point x="22" y="369"/>
      <point x="85" y="301"/>
      <point x="184" y="271" type="curve"/>
      <point x="218" y="362" type="line"/>
      <point x="186" y="387"/>
      <point x="172" y="413"/>
      <point x="172" y="434" type="curve"/>
      <point x="172" y="487"/>
      <point x="251" y="521"/>
      <point x="361" y="521" type="curve"/>
      <point x="470" y="521"/>
      <point x="552" y="488"/>
      <point x="552" y="416" type="curve"/>
      <point x="552" y="396"/>
      <point x="545" y="372"/>
    </contour>
    <contour>
      <point x="350" y="-168" type="curve"/>
      <point x="350" y="-168" type="line"/>
      <point x="387" y="-168"/>
      <point x="424" y="-165"/>
      <point x="466" y="-154" type="curve"/>
      <point x="458" y="-115"/>
      <point x="452" y="-68"/>
      <point x="452" y="-25" type="curve"/>
      <point x="452" y="7"/>
      <point x="455" y="22"/>
      <point x="468" y="22" type="curve"/>
      <point x="479" y="22"/>
      <point x="480" y="9"/>
      <point x="480" y="-1" type="curve"/>
      <point x="480" y="-164" type="line"/>
      <point x="588" y="-164" type="line"/>
      <point x="588" y="13" type="line" smooth="yes"/>
      <point x="588" y="75"/>
      <point x="549" y="116"/>
      <point x="473" y="116" type="curve"/>
      <point x="383" y="116"/>
      <point x="344" y="58"/>
      <point x="344" y="-21" type="curve"/>
      <point x="344" y="-52"/>
      <point x="351" y="-88"/>
      <point x="362" y="-121" type="curve"/>
      <point x="379" y="-68" type="line"/>
      <point x="369" y="-72"/>
      <point x="360" y="-74"/>
      <point x="352" y="-74" type="curve"/>
      <point x="326" y="-74"/>
      <point x="309" y="-53"/>
      <point x="309" y="-14" type="curve"/>
      <point x="309" y="0"/>
      <point x="312" y="14"/>
      <point x="319" y="29" type="curve"/>
      <point x="223" y="59" type="line"/>
      <point x="208" y="30"/>
      <point x="201" y="1"/>
      <point x="201" y="-27" type="curve"/>
      <point x="201" y="-102"/>
      <point x="253" y="-168"/>
    </contour>
  </outline>
</glyph>
<glyph name="hau-oriya" format="2">
  <advance width="734"/>
  <note>
huorya
</note>
  <guideline x="361" y="182" angle="90"/>
  <guideline x="512" y="182" angle="90"/>
  <anchor x="211" y="-236" name="bottom"/>
  <anchor x="362" y="-225" name="bottom_ra"/>
  <anchor x="107" y="-308" name="nukta"/>
  <anchor x="360" y="658" name="top"/>
  <anchor x="562" y="658" name="topright"/>
  <outline>
    <contour>
      <point x="276" y="-248" type="curve"/>
      <point x="276" y="-248" type="line"/>
      <point x="399" y="-248"/>
      <point x="512" y="-148"/>
      <point x="512" y="44" type="curve"/>
      <point x="362" y="74" type="line"/>
      <point x="362" y="44" type="line"/>
      <point x="362" y="-21"/>
      <point x="362" y="-140"/>
      <point x="282" y="-140" type="curve"/>
      <point x="261" y="-140"/>
      <point x="248" y="-132"/>
      <point x="248" y="-117" type="curve"/>
      <point x="248" y="-103"/>
      <point x="260" y="-96"/>
      <point x="273" y="-96" type="curve"/>
      <point x="335" y="-96"/>
      <point x="436" y="-248"/>
      <point x="562" y="-248" type="curve"/>
      <point x="593" y="-248"/>
      <point x="626" y="-239"/>
      <point x="661" y="-214" type="curve"/>
      <point x="602" y="-109" type="line"/>
      <point x="579" y="-124"/>
      <point x="559" y="-130"/>
      <point x="541" y="-130" type="curve"/>
      <point x="454" y="-130"/>
      <point x="398" y="12"/>
      <point x="266" y="12" type="curve"/>
      <point x="180" y="12"/>
      <point x="130" y="-48"/>
      <point x="130" y="-118" type="curve"/>
      <point x="130" y="-187"/>
      <point x="180" y="-248"/>
    </contour>
    <contour>
      <point x="106" y="115" type="line"/>
      <point x="555" y="1" type="line"/>
      <point x="591" y="110" type="line"/>
      <point x="259" y="192" type="line"/>
      <point x="169" y="110" type="line"/>
      <point x="355" y="235" type="line"/>
      <point x="264" y="295" type="line"/>
      <point x="92" y="186" type="line"/>
    </contour>
    <contour>
      <point x="302" y="211" type="curve"/>
      <point x="302" y="211" type="line"/>
      <point x="394" y="211"/>
      <point x="480" y="265"/>
      <point x="480" y="380" type="curve"/>
      <point x="378" y="382" type="line"/>
      <point x="378" y="344"/>
      <point x="360" y="317"/>
      <point x="327" y="317" type="curve"/>
      <point x="303" y="317"/>
      <point x="291" y="331"/>
      <point x="291" y="348" type="curve"/>
      <point x="291" y="368"/>
      <point x="303" y="384"/>
      <point x="333" y="400" type="curve"/>
      <point x="276" y="483" type="line"/>
      <point x="197" y="457"/>
      <point x="147" y="402"/>
      <point x="147" y="335" type="curve"/>
      <point x="147" y="256"/>
      <point x="221" y="211"/>
    </contour>
    <contour>
      <point x="374" y="257" type="line"/>
      <point x="361" y="182" type="line"/>
      <point x="512" y="182" type="line"/>
      <point x="512" y="436" type="line"/>
      <point x="362" y="436" type="line"/>
      <point x="362" y="273" type="line"/>
    </contour>
    <contour>
      <point x="532" y="347" type="curve"/>
      <point x="675" y="290" type="line"/>
      <point x="699" y="330"/>
      <point x="712" y="374"/>
      <point x="712" y="421" type="curve"/>
      <point x="712" y="588"/>
      <point x="547" y="666"/>
      <point x="360" y="666" type="curve"/>
      <point x="156" y="666"/>
      <point x="22" y="573"/>
      <point x="22" y="452" type="curve"/>
      <point x="22" y="369"/>
      <point x="85" y="301"/>
      <point x="184" y="271" type="curve"/>
      <point x="218" y="362" type="line"/>
      <point x="186" y="387"/>
      <point x="172" y="413"/>
      <point x="172" y="434" type="curve"/>
      <point x="172" y="487"/>
      <point x="251" y="521"/>
      <point x="361" y="521" type="curve"/>
      <point x="470" y="521"/>
      <point x="552" y="488"/>
      <point x="552" y="416" type="curve"/>
      <point x="552" y="396"/>
      <point x="545" y="372"/>
    </contour>
  </outline>
</glyph>
<glyph name="ja-oriya.below" format="2">
  <note>
jasubscriptorya
</note>
  <guideline x="209" y="199" angle="90"/>
  <anchor x="239" y="110" name="_bottom"/>
  <anchor x="291" y="-164" name="bottom"/>
  <anchor x="399" y="-164" name="bottom_ra"/>
  <anchor x="205" y="-298" name="nukta"/>
  <outline>
    <contour>
      <point x="161" y="-168" type="curve"/>
      <point x="161" y="-168" type="line"/>
      <point x="198" y="-168"/>
      <point x="235" y="-165"/>
      <point x="277" y="-154" type="curve"/>
      <point x="269" y="-115"/>
      <point x="263" y="-68"/>
      <point x="263" y="-25" type="curve"/>
      <point x="263" y="7"/>
      <point x="266" y="22"/>
      <point x="279" y="22" type="curve"/>
      <point x="290" y="22"/>
      <point x="291" y="9"/>
      <point x="291" y="-1" type="curve"/>
      <point x="291" y="-164" type="line"/>
      <point x="399" y="-164" type="line"/>
      <point x="399" y="13" type="line" smooth="yes"/>
      <point x="399" y="75"/>
      <point x="360" y="116"/>
      <point x="284" y="116" type="curve"/>
      <point x="194" y="116"/>
      <point x="155" y="58"/>
      <point x="155" y="-21" type="curve"/>
      <point x="155" y="-52"/>
      <point x="162" y="-88"/>
      <point x="173" y="-121" type="curve"/>
      <point x="190" y="-68" type="line"/>
      <point x="180" y="-72"/>
      <point x="171" y="-74"/>
      <point x="163" y="-74" type="curve"/>
      <point x="137" y="-74"/>
      <point x="120" y="-53"/>
      <point x="120" y="-14" type="curve"/>
      <point x="120" y="11"/>
      <point x="128" y="35"/>
      <point x="153" y="62" type="curve"/>
      <point x="86" y="121" type="line"/>
      <point x="36" y="80"/>
      <point x="12" y="23"/>
      <point x="12" y="-27" type="curve"/>
      <point x="12" y="-102"/>
      <point x="64" y="-168"/>
    </contour>
  </outline>
</glyph>
<glyph name="jaja-oriya" format="2">
  <advance width="791"/>
  <note>
jajaorya
</note>
  <guideline x="605" y="177" angle="90"/>
  <guideline x="675" y="177" angle="90"/>
  <anchor x="390" y="658" name="top"/>
  <anchor x="619" y="658" name="topright"/>
  <outline>
    <contour>
      <point x="169" y="228" type="curve"/>
      <point x="169" y="228" type="line"/>
      <point x="227" y="326" type="line"/>
      <point x="199" y="344"/>
      <point x="182" y="382"/>
      <point x="182" y="413" type="curve"/>
      <point x="182" y="481"/>
      <point x="260" y="521"/>
      <point x="392" y="521" type="curve"/>
      <point x="522" y="521"/>
      <point x="599" y="482"/>
      <point x="599" y="415" type="curve"/>
      <point x="599" y="401"/>
      <point x="596" y="386"/>
      <point x="591" y="375" type="curve"/>
      <point x="748" y="323" type="line"/>
      <point x="761" y="349"/>
      <point x="769" y="379"/>
      <point x="769" y="415" type="curve"/>
      <point x="769" y="573"/>
      <point x="628" y="666"/>
      <point x="389" y="666" type="curve"/>
      <point x="158" y="666"/>
      <point x="22" y="579"/>
      <point x="22" y="431" type="curve"/>
      <point x="22" y="355"/>
      <point x="66" y="284"/>
    </contour>
    <contour>
      <point x="412" y="-168" type="curve"/>
      <point x="412" y="-168" type="line"/>
      <point x="441" y="-168"/>
      <point x="487" y="-165"/>
      <point x="534" y="-154" type="curve"/>
      <point x="525" y="-115"/>
      <point x="518" y="-69"/>
      <point x="518" y="-23" type="curve"/>
      <point x="518" y="6"/>
      <point x="521" y="22"/>
      <point x="536" y="22" type="curve"/>
      <point x="550" y="22"/>
      <point x="550" y="6"/>
      <point x="550" y="-1" type="curve"/>
      <point x="550" y="-164" type="line"/>
      <point x="674" y="-164" type="line"/>
      <point x="674" y="13" type="line" smooth="yes"/>
      <point x="674" y="75"/>
      <point x="630" y="116"/>
      <point x="542" y="116" type="curve"/>
      <point x="438" y="116"/>
      <point x="393" y="58"/>
      <point x="393" y="-19" type="curve"/>
      <point x="393" y="-54"/>
      <point x="402" y="-89"/>
      <point x="414" y="-121" type="curve"/>
      <point x="434" y="-68" type="line"/>
      <point x="422" y="-72"/>
      <point x="412" y="-74"/>
      <point x="403" y="-74" type="curve"/>
      <point x="373" y="-74"/>
      <point x="353" y="-53"/>
      <point x="353" y="-15" type="curve"/>
      <point x="353" y="25"/>
      <point x="375" y="55"/>
      <point x="423" y="89" type="curve"/>
      <point x="324" y="133" type="line"/>
      <point x="264" y="90"/>
      <point x="229" y="32"/>
      <point x="229" y="-28" type="curve"/>
      <point x="229" y="-102"/>
      <point x="282" y="-168"/>
    </contour>
    <contour>
      <point x="309" y="71" type="curve"/>
      <point x="309" y="71" type="line"/>
      <point x="339" y="71"/>
      <point x="382" y="76"/>
      <point x="423" y="89" type="curve"/>
      <point x="414" y="151"/>
      <point x="409" y="200"/>
      <point x="409" y="240" type="curve"/>
      <point x="409" y="270"/>
      <point x="411" y="292"/>
      <point x="427" y="292" type="curve"/>
      <point x="443" y="292"/>
      <point x="442" y="269"/>
      <point x="442" y="261" type="curve"/>
      <point x="442" y="76" type="line"/>
      <point x="605" y="76" type="line"/>
      <point x="605" y="280" type="line" smooth="yes"/>
      <point x="605" y="356"/>
      <point x="550" y="405"/>
      <point x="444" y="405" type="curve"/>
      <point x="343" y="405"/>
      <point x="283" y="338"/>
      <point x="283" y="241" type="curve"/>
      <point x="283" y="211"/>
      <point x="289" y="171"/>
      <point x="303" y="130" type="curve"/>
      <point x="328" y="186" type="line"/>
      <point x="317" y="182"/>
      <point x="304" y="181"/>
      <point x="297" y="181" type="curve"/>
      <point x="264" y="181"/>
      <point x="244" y="208"/>
      <point x="244" y="243" type="curve"/>
      <point x="244" y="286"/>
      <point x="269" y="340"/>
      <point x="337" y="384" type="curve"/>
      <point x="284" y="465" type="line"/>
      <point x="159" y="412"/>
      <point x="98" y="340"/>
      <point x="98" y="235" type="curve"/>
      <point x="98" y="118"/>
      <point x="185" y="71"/>
    </contour>
  </outline>
</glyph>
<glyph name="jara-oriya" format="2">
  <advance width="815"/>
  <guideline x="95" y="128" angle="90"/>
  <anchor x="398" y="658" name="top"/>
  <anchor x="643" y="658" name="topright"/>
  <outline>
    <contour>
      <point x="173" y="170" type="curve"/>
      <point x="173" y="170" type="line"/>
      <point x="233" y="282" type="line"/>
      <point x="204" y="302"/>
      <point x="187" y="344"/>
      <point x="187" y="379" type="curve"/>
      <point x="187" y="464"/>
      <point x="287" y="506"/>
      <point x="399" y="506" type="curve"/>
      <point x="506" y="506"/>
      <point x="618" y="465"/>
      <point x="618" y="382" type="curve"/>
      <point x="618" y="366"/>
      <point x="615" y="350"/>
      <point x="608" y="336" type="curve"/>
      <point x="771" y="278" type="line"/>
      <point x="786" y="309"/>
      <point x="793" y="343"/>
      <point x="793" y="380" type="curve"/>
      <point x="793" y="570"/>
      <point x="594" y="666"/>
      <point x="398" y="666" type="curve"/>
      <point x="205" y="666"/>
      <point x="22" y="573"/>
      <point x="22" y="399" type="curve"/>
      <point x="22" y="313"/>
      <point x="67" y="233"/>
    </contour>
    <contour>
      <point x="93" y="-60" type="line"/>
      <point x="93" y="-200" type="line"/>
      <point x="629" y="-200" type="line"/>
      <point x="629" y="229" type="line" smooth="yes"/>
      <point x="629" y="326"/>
      <point x="575" y="370"/>
      <point x="471" y="370" type="curve"/>
      <point x="346" y="370"/>
      <point x="291" y="289"/>
      <point x="291" y="181" type="curve"/>
      <point x="291" y="142"/>
      <point x="298" y="99"/>
      <point x="312" y="56" type="curve"/>
      <point x="339" y="125" type="line"/>
      <point x="326" y="120"/>
      <point x="312" y="118"/>
      <point x="303" y="118" type="curve"/>
      <point x="270" y="118"/>
      <point x="249" y="146"/>
      <point x="249" y="188" type="curve"/>
      <point x="249" y="235"/>
      <point x="273" y="291"/>
      <point x="350" y="347" type="curve"/>
      <point x="294" y="439" type="line"/>
      <point x="164" y="381"/>
      <point x="95" y="296"/>
      <point x="95" y="179" type="curve"/>
      <point x="95" y="49"/>
      <point x="187" y="-8"/>
      <point x="309" y="-8" type="curve"/>
      <point x="350" y="-8"/>
      <point x="395" y="-1"/>
      <point x="440" y="11" type="curve"/>
      <point x="432" y="64"/>
      <point x="425" y="126"/>
      <point x="425" y="174" type="curve"/>
      <point x="425" y="226"/>
      <point x="430" y="242"/>
      <point x="444" y="242" type="curve"/>
      <point x="458" y="242"/>
      <point x="459" y="230"/>
      <point x="459" y="208" type="curve"/>
      <point x="459" y="-60" type="line"/>
    </contour>
  </outline>
</glyph>
<glyph name="lla-oriya.below" format="2">
  <note>
llasubscriptorya
</note>
  <guideline x="214" y="202" angle="90"/>
  <anchor x="244" y="110" name="_bottom"/>
  <outline>
    <contour>
      <point x="293" y="-6" type="curve"/>
      <point x="293" y="-164" type="line"/>
      <point x="402" y="-164" type="line"/>
      <point x="402" y="8" type="line" smooth="yes"/>
      <point x="402" y="93"/>
      <point x="351" y="116"/>
      <point x="299" y="116" type="curve"/>
      <point x="229" y="116"/>
      <point x="185" y="76"/>
      <point x="185" y="-10" type="curve"/>
      <point x="242" y="-10" type="line"/>
      <point x="242" y="72"/>
      <point x="204" y="116"/>
      <point x="131" y="116" type="curve"/>
      <point x="49" y="116"/>
      <point x="12" y="59"/>
      <point x="12" y="-37" type="curve"/>
      <point x="12" y="-79"/>
      <point x="19" y="-133"/>
      <point x="31" y="-175" type="curve"/>
      <point x="143" y="-158" type="line"/>
      <point x="135" y="-120"/>
      <point x="131" y="-73"/>
      <point x="131" y="-37" type="curve"/>
      <point x="131" y="5"/>
      <point x="136" y="16"/>
      <point x="147" y="16" type="curve"/>
      <point x="155" y="16"/>
      <point x="159" y="8"/>
      <point x="159" y="-6" type="curve"/>
      <point x="159" y="-164" type="line"/>
      <point x="268" y="-164" type="line"/>
      <point x="268" y="-6" type="line" smooth="yes"/>
      <point x="268" y="10"/>
      <point x="274" y="16"/>
      <point x="281" y="16" type="curve"/>
      <point x="288" y="16"/>
      <point x="293" y="10"/>
    </contour>
  </outline>
</glyph>
<glyph name="ma-oriya.below" format="2">
  <note>
masubscriptorya
</note>
  <guideline x="217" y="206" angle="90"/>
  <anchor x="247" y="110" name="_bottom"/>
  <anchor x="314" y="-164" name="bottom"/>
  <anchor x="422" y="-164" name="bottom_ra"/>
  <anchor x="217" y="-298" name="nukta"/>
  <outline>
    <contour>
      <point x="35" y="-66" type="curve"/>
      <point x="35" y="-66" type="line"/>
      <point x="35" y="-134"/>
      <point x="96" y="-168"/>
      <point x="158" y="-168" type="curve"/>
      <point x="220" y="-168"/>
      <point x="282" y="-134"/>
      <point x="282" y="-64" type="curve"/>
      <point x="282" y="46"/>
      <point x="139" y="106"/>
      <point x="25" y="116" type="curve"/>
      <point x="12" y="26" type="line"/>
      <point x="151" y="15"/>
      <point x="194" y="-22"/>
      <point x="194" y="-61" type="curve"/>
      <point x="194" y="-79"/>
      <point x="179" y="-92"/>
      <point x="159" y="-92" type="curve"/>
      <point x="137" y="-92"/>
      <point x="123" y="-78"/>
      <point x="123" y="-60" type="curve"/>
      <point x="123" y="-25"/>
      <point x="177" y="26"/>
      <point x="328" y="26" type="curve"/>
      <point x="358" y="26"/>
      <point x="375" y="24"/>
      <point x="392" y="21" type="curve"/>
      <point x="422" y="112" type="line"/>
      <point x="398" y="114"/>
      <point x="373" y="116"/>
      <point x="347" y="116" type="curve"/>
      <point x="199" y="116"/>
      <point x="35" y="51"/>
    </contour>
    <contour>
      <point x="314" y="65" type="line"/>
      <point x="314" y="-164" type="line"/>
      <point x="422" y="-164" type="line"/>
      <point x="422" y="112" type="line"/>
    </contour>
  </outline>
</glyph>
<glyph name="maba-oriya" format="2">
  <advance width="770"/>
  <guideline x="453" y="31" angle="0"/>
  <anchor x="554" y="-164" name="bottom"/>
  <anchor x="724" y="-164" name="bottom_ra"/>
  <anchor x="493" y="-294" name="nukta"/>
  <anchor x="373" y="658" name="top"/>
  <anchor x="639" y="658" name="topright"/>
  <outline>
    <contour>
      <point x="169" y="219" type="curve"/>
      <point x="169" y="219" type="line"/>
      <point x="231" y="333" type="line"/>
      <point x="196" y="364"/>
      <point x="186" y="384"/>
      <point x="186" y="411" type="curve"/>
      <point x="186" y="478"/>
      <point x="252" y="516"/>
      <point x="339" y="516" type="curve"/>
      <point x="437" y="516"/>
      <point x="568" y="467"/>
      <point x="568" y="332" type="curve"/>
      <point x="710" y="290" type="line"/>
      <point x="710" y="532"/>
      <point x="559" y="666"/>
      <point x="335" y="666" type="curve"/>
      <point x="134" y="666"/>
      <point x="22" y="558"/>
      <point x="22" y="426" type="curve"/>
      <point x="22" y="348"/>
      <point x="61" y="273"/>
    </contour>
    <contour>
      <point x="206" y="72" type="curve"/>
      <point x="206" y="72" type="line"/>
      <point x="260" y="72"/>
      <point x="309" y="102"/>
      <point x="309" y="158" type="curve"/>
      <point x="309" y="213"/>
      <point x="264" y="250"/>
      <point x="202" y="250" type="curve"/>
      <point x="147" y="250"/>
      <point x="111" y="221"/>
      <point x="111" y="168" type="curve"/>
      <point x="245" y="126" type="line"/>
      <point x="245" y="142"/>
      <point x="245" y="178"/>
      <point x="245" y="180" type="curve"/>
      <point x="245" y="230"/>
      <point x="283" y="279"/>
      <point x="453" y="288" type="curve"/>
      <point x="434" y="412" type="line"/>
      <point x="250" y="403"/>
      <point x="95" y="314"/>
      <point x="95" y="182" type="curve"/>
      <point x="95" y="103"/>
      <point x="151" y="72"/>
    </contour>
    <contour>
      <point x="484" y="-127" type="curve"/>
      <point x="484" y="-127" type="line"/>
      <point x="569" y="-127"/>
      <point x="654" y="-76"/>
      <point x="654" y="30" type="curve"/>
      <point x="571" y="44" type="line"/>
      <point x="571" y="6"/>
      <point x="545" y="-20"/>
      <point x="512" y="-20" type="curve"/>
      <point x="482" y="-20"/>
      <point x="471" y="0"/>
      <point x="471" y="28" type="curve"/>
      <point x="471" y="45"/>
      <point x="475" y="66"/>
      <point x="483" y="90" type="curve"/>
      <point x="362" y="111" type="line"/>
      <point x="348" y="80"/>
      <point x="341" y="48"/>
      <point x="341" y="17" type="curve"/>
      <point x="341" y="-61"/>
      <point x="388" y="-127"/>
    </contour>
    <contour>
      <point x="554" y="-164" type="line"/>
      <point x="724" y="-164" type="line"/>
      <point x="724" y="658" type="line"/>
      <point x="554" y="658" type="line"/>
      <point x="564" y="558" type="line"/>
      <point x="554" y="486" type="line"/>
      <point x="554" y="-61" type="line"/>
      <point x="564" y="-70" type="line"/>
    </contour>
  </outline>
</glyph>
<glyph name="na-oriya.below" format="2">
  <note>
nasubscriptorya
</note>
  <guideline x="191" y="206" angle="90"/>
  <anchor x="221" y="110" name="_bottom"/>
  <anchor x="253" y="-164" name="bottom"/>
  <anchor x="361" y="-164" name="bottom_ra"/>
  <anchor x="210" y="-288" name="nukta"/>
  <outline>
    <contour>
      <point x="114" y="-168" type="curve"/>
      <point x="114" y="-168" type="line"/>
      <point x="169" y="-168"/>
      <point x="199" y="-131"/>
      <point x="199" y="-93" type="curve"/>
      <point x="199" y="-55"/>
      <point x="168" y="-15"/>
      <point x="105" y="-15" type="curve"/>
      <point x="96" y="-15"/>
      <point x="86" y="-16"/>
      <point x="76" y="-19" type="curve"/>
      <point x="141" y="-115" type="line"/>
      <point x="139" y="-105"/>
      <point x="138" y="-94"/>
      <point x="138" y="-85" type="curve"/>
      <point x="138" y="-15"/>
      <point x="196" y="16"/>
      <point x="271" y="16" type="curve"/>
      <point x="309" y="16"/>
      <point x="321" y="16"/>
      <point x="334" y="15" type="curve"/>
      <point x="253" y="47" type="line"/>
      <point x="253" y="-164" type="line"/>
      <point x="361" y="-164" type="line"/>
      <point x="361" y="109" type="line"/>
      <point x="327" y="115"/>
      <point x="302" y="116"/>
      <point x="278" y="116" type="curve"/>
      <point x="106" y="116"/>
      <point x="20" y="10"/>
      <point x="20" y="-75" type="curve"/>
      <point x="20" y="-128"/>
      <point x="53" y="-168"/>
    </contour>
  </outline>
</glyph>
<glyph name="nna-oriya.below" format="2">
  <note>
nnasubscriptorya
</note>
  <guideline x="216" y="144" angle="90"/>
  <anchor x="192" y="110" name="_bottom"/>
  <outline>
    <contour>
      <point x="12" y="-120" type="curve"/>
      <point x="12" y="-120" type="line"/>
      <point x="12" y="-211"/>
      <point x="85" y="-248"/>
      <point x="163" y="-248" type="curve"/>
      <point x="232" y="-248"/>
      <point x="282" y="-218"/>
      <point x="282" y="-162" type="curve"/>
      <point x="282" y="-111"/>
      <point x="229" y="-84"/>
      <point x="171" y="-84" type="curve"/>
      <point x="144" y="-84"/>
      <point x="117" y="-89"/>
      <point x="94" y="-101" type="curve"/>
      <point x="100" y="-160" type="line"/>
      <point x="120" y="-149"/>
      <point x="141" y="-144"/>
      <point x="158" y="-144" type="curve"/>
      <point x="184" y="-144"/>
      <point x="194" y="-153"/>
      <point x="194" y="-162" type="curve"/>
      <point x="194" y="-170"/>
      <point x="186" y="-178"/>
      <point x="165" y="-178" type="curve"/>
      <point x="131" y="-178"/>
      <point x="114" y="-157"/>
      <point x="114" y="-118" type="curve"/>
      <point x="114" y="-75"/>
      <point x="134" y="-58"/>
      <point x="170" y="-58" type="curve"/>
      <point x="185" y="-58"/>
      <point x="201" y="-61"/>
      <point x="218" y="-68" type="curve"/>
      <point x="244" y="-8" type="line"/>
      <point x="216" y="5"/>
      <point x="185" y="12"/>
      <point x="156" y="12" type="curve"/>
      <point x="80" y="12"/>
      <point x="12" y="-33"/>
    </contour>
    <contour>
      <point x="312" y="7" type="line"/>
      <point x="312" y="-244" type="line"/>
      <point x="420" y="-244" type="line"/>
      <point x="420" y="112" type="line"/>
      <point x="312" y="112" type="line"/>
      <point x="322" y="51" type="line"/>
    </contour>
    <contour>
      <point x="106" y="-32" type="curve"/>
      <point x="106" y="-32" type="line"/>
      <point x="186" y="-14" type="line"/>
      <point x="182" y="-6"/>
      <point x="180" y="1"/>
      <point x="180" y="7" type="curve"/>
      <point x="180" y="25"/>
      <point x="200" y="36"/>
      <point x="225" y="36" type="curve"/>
      <point x="268" y="36"/>
      <point x="337" y="8"/>
      <point x="337" y="-90" type="curve"/>
      <point x="404" y="-90" type="line"/>
      <point x="404" y="55"/>
      <point x="298" y="116"/>
      <point x="209" y="116" type="curve"/>
      <point x="144" y="116"/>
      <point x="88" y="83"/>
      <point x="88" y="27" type="curve"/>
      <point x="88" y="10"/>
      <point x="94" y="-10"/>
    </contour>
  </outline>
</glyph>
<glyph name="overline-oriya.wide" format="2">
  <anchor x="0" y="658" name="_top"/>
  <anchor x="178" y="658" name="_topAA"/>
  <outline>
    <contour>
      <point x="178" y="841" type="line"/>
      <point x="-179" y="841" type="line"/>
      <point x="-179" y="726" type="line"/>
      <point x="178" y="726" type="line"/>
    </contour>
  </outline>
</glyph>
<glyph name="pha-oriya.below" format="2">
  <note>
phasubscriptorya
</note>
  <guideline x="228" y="155" angle="90"/>
  <anchor x="216" y="110" name="_bottom"/>
  <anchor x="336" y="-244" name="bottom"/>
  <anchor x="444" y="-244" name="bottom_ra"/>
  <anchor x="237" y="-378" name="nukta"/>
  <outline>
    <contour>
      <point x="391" y="4" type="curve"/>
      <point x="391" y="4" type="line"/>
      <point x="391" y="-53"/>
      <point x="439" y="-81"/>
      <point x="488" y="-81" type="curve"/>
      <point x="536" y="-81"/>
      <point x="582" y="-53"/>
      <point x="582" y="4" type="curve"/>
      <point x="582" y="61"/>
      <point x="536" y="90"/>
      <point x="488" y="90" type="curve"/>
      <point x="439" y="90"/>
      <point x="391" y="61"/>
    </contour>
    <contour>
      <point x="471" y="30" type="curve"/>
      <point x="471" y="30" type="line"/>
      <point x="487" y="30"/>
      <point x="498" y="19"/>
      <point x="498" y="4" type="curve"/>
      <point x="498" y="-12"/>
      <point x="487" y="-21"/>
      <point x="471" y="-21" type="curve"/>
      <point x="454" y="-21"/>
      <point x="444" y="-12"/>
      <point x="444" y="4" type="curve"/>
      <point x="444" y="19"/>
      <point x="454" y="30"/>
    </contour>
    <contour>
      <point x="12" y="-26" type="curve"/>
      <point x="12" y="-26" type="line"/>
      <point x="12" y="-78"/>
      <point x="40" y="-122"/>
      <point x="99" y="-152" type="curve"/>
      <point x="149" y="-90" type="line"/>
      <point x="134" y="-76"/>
      <point x="122" y="-59"/>
      <point x="122" y="-39" type="curve"/>
      <point x="122" y="-3"/>
      <point x="165" y="16"/>
      <point x="212" y="16" type="curve"/>
      <point x="280" y="16"/>
      <point x="351" y="-20"/>
      <point x="351" y="-90" type="curve"/>
      <point x="428" y="-90" type="line"/>
      <point x="428" y="50"/>
      <point x="312" y="116"/>
      <point x="201" y="116" type="curve"/>
      <point x="105" y="116"/>
      <point x="12" y="66"/>
    </contour>
    <contour>
      <point x="444" y="-244" type="line"/>
      <point x="444" y="112" type="line"/>
      <point x="336" y="112" type="line"/>
      <point x="346" y="51" type="line"/>
      <point x="336" y="7" type="line"/>
      <point x="336" y="-176" type="line"/>
      <point x="350" y="-172" type="line"/>
      <point x="336" y="-244" type="line"/>
    </contour>
    <contour>
      <point x="213" y="-248" type="curve"/>
      <point x="213" y="-248" type="line"/>
      <point x="296" y="-248"/>
      <point x="367" y="-201"/>
      <point x="392" y="-132" type="curve"/>
      <point x="341" y="-67" type="line"/>
      <point x="317" y="-117"/>
      <point x="262" y="-148"/>
      <point x="223" y="-148" type="curve"/>
      <point x="206" y="-148"/>
      <point x="198" y="-143"/>
      <point x="198" y="-130" type="curve"/>
      <point x="198" y="-119"/>
      <point x="213" y="-105"/>
      <point x="244" y="-95" type="curve"/>
      <point x="209" y="-18" type="line"/>
      <point x="124" y="-44"/>
      <point x="88" y="-98"/>
      <point x="88" y="-148" type="curve"/>
      <point x="88" y="-200"/>
      <point x="129" y="-248"/>
    </contour>
  </outline>
</glyph>
<glyph name="rephaiLength-oriya" format="2">
  <advance width="800"/>
  <note>
ailengthmarkrephorya
</note>
  <anchor x="546" y="658" name="_topright"/>
  <outline>
    <contour>
      <point x="521" y="807" type="line"/>
      <point x="595" y="719" type="line"/>
      <point x="798" y="889" type="line"/>
      <point x="724" y="977" type="line"/>
    </contour>
    <contour>
      <point x="497" y="718" type="curve"/>
      <point x="497" y="718" type="line"/>
      <point x="650" y="686" type="line"/>
      <point x="668" y="718"/>
      <point x="676" y="751"/>
      <point x="676" y="783" type="curve"/>
      <point x="676" y="867"/>
      <point x="618" y="941"/>
      <point x="507" y="941" type="curve"/>
      <point x="410" y="941"/>
      <point x="281" y="884"/>
      <point x="227" y="884" type="curve"/>
      <point x="200" y="884"/>
      <point x="177" y="898"/>
      <point x="158" y="931" type="curve"/>
      <point x="17" y="844" type="line"/>
      <point x="55" y="745"/>
      <point x="133" y="724"/>
      <point x="196" y="724" type="curve"/>
      <point x="299" y="724"/>
      <point x="404" y="781"/>
      <point x="458" y="781" type="curve"/>
      <point x="489" y="781"/>
      <point x="502" y="763"/>
      <point x="502" y="742" type="curve"/>
      <point x="502" y="734"/>
      <point x="500" y="726"/>
    </contour>
  </outline>
</glyph>
<glyph name="rephaiLength-oriya.stem" format="2">
  <note>
ailengthmarkrephorya
</note>
  <anchor x="515" y="658" name="_topright"/>
  <outline>
    <contour>
      <point x="521" y="807" type="line"/>
      <point x="595" y="719" type="line"/>
      <point x="798" y="889" type="line"/>
      <point x="724" y="977" type="line"/>
    </contour>
    <contour>
      <point x="430" y="658" type="curve"/>
      <point x="430" y="658" type="line"/>
      <point x="566" y="622" type="line"/>
      <point x="642" y="670"/>
      <point x="677" y="737"/>
      <point x="677" y="798" type="curve"/>
      <point x="677" y="875"/>
      <point x="618" y="941"/>
      <point x="510" y="941" type="curve"/>
      <point x="410" y="941"/>
      <point x="282" y="884"/>
      <point x="228" y="884" type="curve"/>
      <point x="201" y="884"/>
      <point x="178" y="898"/>
      <point x="159" y="931" type="curve"/>
      <point x="18" y="844" type="line"/>
      <point x="56" y="745"/>
      <point x="134" y="724"/>
      <point x="197" y="724" type="curve"/>
      <point x="300" y="724"/>
      <point x="403" y="781"/>
      <point x="461" y="781" type="curve"/>
      <point x="489" y="781"/>
      <point x="503" y="768"/>
      <point x="503" y="749" type="curve"/>
      <point x="503" y="723"/>
      <point x="479" y="687"/>
    </contour>
  </outline>
</glyph>
<glyph name="sa-oriya.below" format="2">
  <note>
sasubscriptorya
</note>
  <guideline x="213" y="155" angle="90"/>
  <anchor x="186" y="110" name="_bottom"/>
  <anchor x="306" y="-236" name="bottom"/>
  <anchor x="414" y="-248" name="bottom_ra"/>
  <anchor x="213" y="-348" name="nukta"/>
  <outline>
    <contour>
      <point x="114" y="-134" type="curve"/>
      <point x="114" y="-134" type="line"/>
      <point x="147" y="-76" type="line"/>
      <point x="129" y="-63"/>
      <point x="122" y="-50"/>
      <point x="122" y="-36" type="curve"/>
      <point x="122" y="-2"/>
      <point x="161" y="16"/>
      <point x="204" y="16" type="curve"/>
      <point x="259" y="16"/>
      <point x="321" y="-15"/>
      <point x="321" y="-90" type="curve"/>
      <point x="398" y="-90" type="line"/>
      <point x="398" y="51"/>
      <point x="288" y="116"/>
      <point x="177" y="116" type="curve"/>
      <point x="72" y="116"/>
      <point x="12" y="58"/>
      <point x="12" y="-9" type="curve"/>
      <point x="12" y="-61"/>
      <point x="48" y="-114"/>
    </contour>
    <contour>
      <point x="350" y="-248" type="line"/>
      <point x="414" y="-248" type="line"/>
      <point x="414" y="-172" type="line"/>
      <point x="121" y="-115" type="line"/>
      <point x="128" y="-191" type="line"/>
      <point x="248" y="-81" type="line"/>
      <point x="188" y="-15" type="line"/>
      <point x="38" y="-151" type="line"/>
      <point x="51" y="-189" type="line"/>
    </contour>
    <contour>
      <point x="306" y="7" type="line"/>
      <point x="306" y="-204" type="line"/>
      <point x="414" y="-204" type="line"/>
      <point x="414" y="112" type="line"/>
      <point x="306" y="112" type="line"/>
      <point x="316" y="51" type="line"/>
    </contour>
  </outline>
</glyph>
<glyph name="sata-oriya" format="2">
  <advance width="794"/>
  <note>
sataorya
</note>
  <guideline x="712" y="284" angle="90"/>
  <guideline x="782" y="284" angle="90"/>
  <anchor x="552" y="-324" name="nukta"/>
  <anchor x="308" y="658" name="top"/>
  <anchor x="627" y="658" name="topright"/>
  <outline>
    <contour>
      <point x="199" y="203" type="curve"/>
      <point x="199" y="203" type="line"/>
      <point x="279" y="303" type="line"/>
      <point x="227" y="323"/>
      <point x="195" y="369"/>
      <point x="195" y="411" type="curve"/>
      <point x="195" y="461"/>
      <point x="240" y="506"/>
      <point x="330" y="506" type="curve"/>
      <point x="438" y="506"/>
      <point x="566" y="446"/>
      <point x="566" y="285" type="curve"/>
      <point x="694" y="293" type="line"/>
      <point x="694" y="547"/>
      <point x="497" y="666"/>
      <point x="308" y="666" type="curve"/>
      <point x="127" y="666"/>
      <point x="22" y="559"/>
      <point x="22" y="434" type="curve"/>
      <point x="22" y="336"/>
      <point x="85" y="238"/>
    </contour>
    <contour>
      <point x="104" y="73" type="line"/>
      <point x="596" y="-20" type="line"/>
      <point x="610" y="136" type="line"/>
      <point x="218" y="210" type="line"/>
      <point x="232" y="112" type="line"/>
      <point x="435" y="296" type="line"/>
      <point x="334" y="407" type="line"/>
      <point x="70" y="167" type="line"/>
    </contour>
    <contour>
      <point x="542" y="498" type="line"/>
      <point x="542" y="105" type="line"/>
      <point x="712" y="105" type="line"/>
      <point x="712" y="658" type="line"/>
      <point x="542" y="658" type="line"/>
      <point x="553" y="544" type="line"/>
    </contour>
    <contour>
      <point x="488" y="-204" type="curve"/>
      <point x="488" y="-204" type="line"/>
      <point x="652" y="-204"/>
      <point x="782" y="-121"/>
      <point x="782" y="28" type="curve"/>
      <point x="782" y="130"/>
      <point x="721" y="175"/>
      <point x="647" y="175" type="curve"/>
      <point x="584" y="175"/>
      <point x="511" y="143"/>
      <point x="511" y="58" type="curve"/>
      <point x="511" y="-34"/>
      <point x="595" y="-59"/>
      <point x="636" y="-59" type="curve"/>
      <point x="696" y="-59"/>
      <point x="753" y="-2"/>
      <point x="753" y="57" type="curve"/>
      <point x="658" y="7" type="line"/>
      <point x="658" y="-57"/>
      <point x="586" y="-84"/>
      <point x="495" y="-84" type="curve"/>
      <point x="430" y="-84"/>
      <point x="356" y="-70"/>
      <point x="292" y="-44" type="curve"/>
      <point x="245" y="-155" type="line"/>
      <point x="305" y="-183"/>
      <point x="406" y="-204"/>
    </contour>
    <contour>
      <point x="675" y="55" type="curve"/>
      <point x="675" y="55" type="line"/>
      <point x="675" y="41"/>
      <point x="668" y="25"/>
      <point x="647" y="25" type="curve"/>
      <point x="626" y="25"/>
      <point x="619" y="41"/>
      <point x="619" y="55" type="curve"/>
      <point x="619" y="69"/>
      <point x="626" y="85"/>
      <point x="647" y="85" type="curve"/>
      <point x="668" y="85"/>
      <point x="675" y="69"/>
    </contour>
  </outline>
</glyph>
<glyph name="ssa-oriya.base" format="2">
  <advance width="770"/>
  <anchor x="639" y="110" name="bottom"/>
  <anchor x="373" y="-79" name="nukta"/>
  <anchor x="373" y="658" name="top"/>
  <anchor x="639" y="658" name="topright"/>
  <outline>
    <contour>
      <point x="163" y="575" type="line"/>
      <point x="516" y="135" type="line"/>
      <point x="615" y="188" type="line"/>
      <point x="265" y="628" type="line"/>
    </contour>
    <contour>
      <point x="169" y="219" type="curve"/>
      <point x="169" y="219" type="line"/>
      <point x="231" y="333" type="line"/>
      <point x="199" y="362"/>
      <point x="186" y="381"/>
      <point x="186" y="411" type="curve"/>
      <point x="186" y="484"/>
      <point x="260" y="516"/>
      <point x="338" y="516" type="curve"/>
      <point x="451" y="516"/>
      <point x="569" y="459"/>
      <point x="568" y="332" type="curve"/>
      <point x="710" y="290" type="line"/>
      <point x="710" y="547"/>
      <point x="547" y="666"/>
      <point x="324" y="666" type="curve"/>
      <point x="171" y="666"/>
      <point x="22" y="583"/>
      <point x="22" y="422" type="curve"/>
      <point x="22" y="335"/>
      <point x="72" y="270"/>
    </contour>
    <contour>
      <point x="352" y="71" type="curve"/>
      <point x="352" y="71" type="line"/>
      <point x="468" y="71"/>
      <point x="591" y="133"/>
      <point x="642" y="266" type="curve"/>
      <point x="561" y="349" type="line"/>
      <point x="529" y="267"/>
      <point x="437" y="206"/>
      <point x="368" y="206" type="curve"/>
      <point x="338" y="206"/>
      <point x="304" y="217"/>
      <point x="304" y="252" type="curve"/>
      <point x="304" y="288"/>
      <point x="341" y="315"/>
      <point x="389" y="335" type="curve"/>
      <point x="336" y="447" type="line"/>
      <point x="224" y="411"/>
      <point x="147" y="333"/>
      <point x="147" y="239" type="curve"/>
      <point x="147" y="138"/>
      <point x="235" y="71"/>
    </contour>
    <contour>
      <point x="574" y="183" type="line"/>
      <point x="554" y="76" type="line"/>
      <point x="724" y="76" type="line"/>
      <point x="724" y="658" type="line"/>
      <point x="554" y="658" type="line"/>
      <point x="564" y="558" type="line"/>
      <point x="554" y="486" type="line"/>
      <point x="554" y="221" type="line"/>
    </contour>
  </outline>
</glyph>
<glyph name="ta-oriya.below" format="2">
  <note>
tasubscriptorya
</note>
  <guideline x="397" y="157" angle="90"/>
  <anchor x="397" y="110" name="_bottom"/>
  <anchor x="324" y="-288" name="nukta"/>
  <outline>
    <contour>
      <point x="402" y="-112" type="curve"/>
      <point x="402" y="-112" type="line"/>
      <point x="388" y="-58" type="line"/>
      <point x="368" y="-67"/>
      <point x="342" y="-72"/>
      <point x="313" y="-72" type="curve"/>
      <point x="246" y="-72"/>
      <point x="160" y="-45"/>
      <point x="72" y="32" type="curve"/>
      <point x="12" y="-34" type="line"/>
      <point x="94" y="-106"/>
      <point x="203" y="-148"/>
      <point x="307" y="-148" type="curve"/>
      <point x="439" y="-148"/>
      <point x="517" y="-93"/>
      <point x="517" y="0" type="curve"/>
      <point x="517" y="73"/>
      <point x="472" y="116"/>
      <point x="397" y="116" type="curve"/>
      <point x="322" y="116"/>
      <point x="277" y="73"/>
      <point x="277" y="1" type="curve"/>
      <point x="277" y="-55"/>
      <point x="304" y="-112"/>
    </contour>
    <contour>
      <point x="397" y="-36" type="curve"/>
      <point x="397" y="-36" type="line"/>
      <point x="376" y="-36"/>
      <point x="365" y="-19"/>
      <point x="365" y="2" type="curve"/>
      <point x="365" y="25"/>
      <point x="376" y="40"/>
      <point x="397" y="40" type="curve"/>
      <point x="418" y="40"/>
      <point x="429" y="23"/>
      <point x="429" y="2" type="curve"/>
      <point x="429" y="-19"/>
      <point x="418" y="-36"/>
    </contour>
  </outline>
</glyph>
<glyph name="tasa-oriya" format="2">
  <advance width="758"/>
  <note>
tasaorya
</note>
  <guideline x="712" y="-55" angle="90"/>
  <guideline x="65" y="181" angle="110"/>
  <anchor x="367" y="-282" name="nukta"/>
  <anchor x="308" y="658" name="top"/>
  <anchor x="627" y="658" name="topright"/>
  <outline>
    <contour>
      <point x="172" y="-115" type="line"/>
      <point x="683" y="-212" type="line"/>
      <point x="712" y="-91" type="line"/>
      <point x="277" y="-9" type="line"/>
      <point x="280" y="-75" type="line"/>
      <point x="409" y="40" type="line"/>
      <point x="322" y="119" type="line"/>
      <point x="146" y="-41" type="line"/>
    </contour>
    <contour>
      <point x="199" y="203" type="curve"/>
      <point x="199" y="203" type="line"/>
      <point x="279" y="303" type="line"/>
      <point x="227" y="323"/>
      <point x="195" y="369"/>
      <point x="195" y="411" type="curve"/>
      <point x="195" y="461"/>
      <point x="240" y="506"/>
      <point x="330" y="506" type="curve"/>
      <point x="438" y="506"/>
      <point x="566" y="446"/>
      <point x="566" y="285" type="curve"/>
      <point x="694" y="293" type="line"/>
      <point x="694" y="547"/>
      <point x="497" y="666"/>
      <point x="308" y="666" type="curve"/>
      <point x="127" y="666"/>
      <point x="22" y="559"/>
      <point x="22" y="434" type="curve"/>
      <point x="22" y="336"/>
      <point x="85" y="238"/>
    </contour>
    <contour>
      <point x="542" y="498" type="line"/>
      <point x="542" y="40" type="line"/>
      <point x="690" y="121" type="line"/>
      <point x="218" y="210" type="line"/>
      <point x="232" y="112" type="line"/>
      <point x="435" y="296" type="line"/>
      <point x="334" y="407" type="line"/>
      <point x="70" y="167" type="line"/>
      <point x="104" y="73" type="line"/>
      <point x="623" y="-25" type="line"/>
      <point x="712" y="-25" type="line"/>
      <point x="712" y="658" type="line"/>
      <point x="542" y="658" type="line"/>
      <point x="553" y="544" type="line"/>
    </contour>
  </outline>
</glyph>
<glyph name="tha-oriya.below" format="2">
  <note>
thasubscriptorya
</note>
  <guideline x="399" y="158" angle="90"/>
  <anchor x="399" y="110" name="_bottom"/>
  <anchor x="278" y="-278" name="nukta"/>
  <outline>
    <contour>
      <point x="430" y="-168" type="curve"/>
      <point x="430" y="-168" type="line"/>
      <point x="517" y="-168"/>
      <point x="545" y="-104"/>
      <point x="545" y="-41" type="curve"/>
      <point x="545" y="25"/>
      <point x="514" y="92"/>
      <point x="419" y="92" type="curve"/>
      <point x="273" y="92"/>
      <point x="242" y="-68"/>
      <point x="155" y="-68" type="curve"/>
      <point x="128" y="-68"/>
      <point x="122" y="-52"/>
      <point x="122" y="-39" type="curve"/>
      <point x="122" y="-25"/>
      <point x="129" y="-8"/>
      <point x="157" y="-8" type="curve"/>
      <point x="244" y="-8"/>
      <point x="292" y="-168"/>
    </contour>
    <contour>
      <point x="129" y="-168" type="curve"/>
      <point x="129" y="-168" type="line"/>
      <point x="266" y="-168"/>
      <point x="316" y="-8"/>
      <point x="401" y="-8" type="curve"/>
      <point x="429" y="-8"/>
      <point x="435" y="-25"/>
      <point x="435" y="-39" type="curve"/>
      <point x="435" y="-52"/>
      <point x="429" y="-68"/>
      <point x="402" y="-68" type="curve"/>
      <point x="315" y="-68"/>
      <point x="287" y="92"/>
      <point x="140" y="92" type="curve"/>
      <point x="45" y="92"/>
      <point x="12" y="25"/>
      <point x="12" y="-41" type="curve"/>
      <point x="12" y="-106"/>
      <point x="43" y="-168"/>
    </contour>
  </outline>
</glyph>
<glyph name="tta-oriya.below" format="2">
  <note>
ttasubscriptorya
</note>
  <guideline x="221" y="145" angle="90"/>
  <anchor x="201" y="110" name="_bottom"/>
  <outline>
    <contour>
      <point x="101" y="-152" type="curve"/>
      <point x="101" y="-152" type="line"/>
      <point x="151" y="-90" type="line"/>
      <point x="132" y="-75"/>
      <point x="122" y="-58"/>
      <point x="122" y="-39" type="curve"/>
      <point x="122" y="-3"/>
      <point x="165" y="16"/>
      <point x="206" y="16" type="curve"/>
      <point x="267" y="16"/>
      <point x="333" y="-12"/>
      <point x="333" y="-75" type="curve"/>
      <point x="411" y="-75" type="line"/>
      <point x="411" y="54"/>
      <point x="290" y="116"/>
      <point x="189" y="116" type="curve"/>
      <point x="98" y="116"/>
      <point x="12" y="66"/>
      <point x="12" y="-27" type="curve"/>
      <point x="12" y="-73"/>
      <point x="36" y="-117"/>
    </contour>
    <contour>
      <point x="321" y="7" type="line"/>
      <point x="321" y="-78" type="line"/>
      <point x="429" y="-78" type="line"/>
      <point x="429" y="112" type="line"/>
      <point x="321" y="112" type="line"/>
      <point x="327" y="51" type="line"/>
    </contour>
    <contour>
      <point x="190" y="-248" type="curve"/>
      <point x="190" y="-248" type="line"/>
      <point x="262" y="-248"/>
      <point x="311" y="-207"/>
      <point x="311" y="-145" type="curve"/>
      <point x="311" y="-83"/>
      <point x="262" y="-42"/>
      <point x="190" y="-42" type="curve"/>
      <point x="117" y="-42"/>
      <point x="68" y="-83"/>
      <point x="68" y="-145" type="curve"/>
      <point x="68" y="-207"/>
      <point x="117" y="-248"/>
    </contour>
    <contour>
      <point x="190" y="-172" type="curve"/>
      <point x="190" y="-172" type="line"/>
      <point x="169" y="-172"/>
      <point x="156" y="-161"/>
      <point x="156" y="-145" type="curve"/>
      <point x="156" y="-129"/>
      <point x="169" y="-118"/>
      <point x="190" y="-118" type="curve"/>
      <point x="211" y="-118"/>
      <point x="223" y="-129"/>
      <point x="223" y="-145" type="curve"/>
      <point x="223" y="-161"/>
      <point x="211" y="-172"/>
    </contour>
  </outline>
</glyph>
<glyph name="ttha-oriya.below" format="2">
  <note>
tthasubscriptorya
</note>
  <guideline x="186" y="155" angle="90"/>
  <anchor x="206" y="110" name="_bottom"/>
  <anchor x="186" y="-338" name="nukta"/>
  <outline>
    <contour>
      <point x="186" y="-208" type="curve"/>
      <point x="186" y="-208" type="line"/>
      <point x="290" y="-208"/>
      <point x="360" y="-143"/>
      <point x="360" y="-46" type="curve"/>
      <point x="360" y="51"/>
      <point x="290" y="116"/>
      <point x="186" y="116" type="curve"/>
      <point x="82" y="116"/>
      <point x="12" y="51"/>
      <point x="12" y="-46" type="curve"/>
      <point x="12" y="-143"/>
      <point x="82" y="-208"/>
    </contour>
    <contour>
      <point x="186" y="-109" type="curve"/>
      <point x="186" y="-109" type="line"/>
      <point x="146" y="-109"/>
      <point x="120" y="-81"/>
      <point x="120" y="-46" type="curve"/>
      <point x="120" y="-10"/>
      <point x="146" y="17"/>
      <point x="186" y="17" type="curve"/>
      <point x="226" y="17"/>
      <point x="252" y="-10"/>
      <point x="252" y="-46" type="curve"/>
      <point x="252" y="-81"/>
      <point x="226" y="-109"/>
    </contour>
  </outline>
</glyph>
<glyph name="va-oriya.below" format="2">
  <guideline x="145" y="123" angle="0"/>
  <guideline x="151" y="97" angle="0"/>
  <guideline x="162" y="206" angle="90"/>
  <anchor x="183" y="110" name="_bottom"/>
  <anchor x="161" y="-277" name="nukta"/>
  <outline>
    <contour>
      <point x="12" y="5" type="curve"/>
      <point x="12" y="5" type="line"/>
      <point x="12" y="-72"/>
      <point x="50" y="-127"/>
      <point x="151" y="-127" type="curve"/>
      <point x="218" y="-127"/>
      <point x="303" y="-77"/>
      <point x="303" y="27" type="curve"/>
      <point x="220" y="41" type="line"/>
      <point x="220" y="6"/>
      <point x="194" y="-20"/>
      <point x="161" y="-20" type="curve"/>
      <point x="131" y="-20"/>
      <point x="120" y="0"/>
      <point x="120" y="26" type="curve"/>
      <point x="120" y="47"/>
      <point x="126" y="74"/>
      <point x="137" y="102" type="curve"/>
      <point x="39" y="123" type="line"/>
      <point x="20" y="82"/>
      <point x="12" y="44"/>
    </contour>
    <contour>
      <point x="213" y="-70" type="line"/>
      <point x="203" y="-164" type="line"/>
      <point x="311" y="-164" type="line"/>
      <point x="311" y="112" type="line"/>
      <point x="203" y="112" type="line"/>
      <point x="203" y="-49" type="line"/>
    </contour>
  </outline>
</glyph>
